{"glyphs":{"0":{"ha":718,"x_min":-7,"x_max":729,"o":"m 729 654 l 277 654 l 277 543 q 380 568 304 568 q 635 446 551 568 q 675 313 675 387 q 592 117 675 217 q 336 0 496 0 q 80 118 157 0 q 43 245 43 175 q 186 492 43 397 l 186 654 l -7 654 l -7 736 l 729 736 l 729 654 m 571 257 q 436 471 571 406 q 290 501 373 501 q 168 402 220 501 q 144 306 144 357 q 225 130 144 199 q 410 65 301 65 q 550 155 506 65 q 571 257 571 197 z "},"1":{"ha":267,"x_min":-9,"x_max":273,"o":"m 273 654 l -9 654 l -9 736 l 273 736 l 273 654 m 184 -68 l 79 1 l 79 482 q 69 536 79 511 l 69 557 l 184 581 l 184 -68 z "},"2":{"ha":667,"x_min":-8,"x_max":676,"o":"m 676 654 l 252 654 q 253 623 253 652 l 253 575 q 300 578 272 578 q 566 367 566 578 q 314 77 566 221 q 521 93 450 77 q 606 125 569 104 l 547 0 l 56 0 l 83 61 q 390 189 277 75 q 447 323 447 246 q 364 459 447 412 q 201 497 297 497 q 68 481 141 497 q 155 543 98 515 l 155 654 l -8 654 l -8 736 l 676 736 l 676 654 z "},"3":{"ha":562,"x_min":-7,"x_max":574,"o":"m 574 654 l 250 654 l 250 576 q 304 582 269 582 q 451 534 404 582 q 478 460 478 507 q 368 321 478 377 q 465 270 435 294 q 510 176 510 233 q 378 25 510 76 q 221 0 313 0 q 58 47 115 0 l 170 135 q 321 71 207 71 q 378 79 363 71 q 399 129 399 91 q 297 235 397 201 q 136 257 229 257 q 94 256 104 257 l 205 332 q 250 336 224 336 q 318 330 281 336 q 354 408 354 370 q 325 474 354 445 q 260 507 296 503 q 203 510 234 511 q 81 492 140 509 q 126 536 95 507 q 158 553 136 543 l 158 654 l -7 654 l -7 736 l 574 736 l 574 654 z "},"4":{"ha":672,"x_min":-9,"x_max":676,"o":"m 676 654 l 519 654 l 519 243 l 633 243 l 582 176 l 518 176 l 518 0 l 399 0 l 399 179 l 45 179 l 229 374 q 425 554 347 496 l 425 654 l -9 654 l -9 736 l 676 736 l 676 654 m 400 243 q 399 407 400 336 l 399 478 q 389 489 396 489 q 383 486 386 488 q 160 243 195 302 l 400 243 z "},"5":{"ha":567,"x_min":-11,"x_max":576,"o":"m 576 654 l 447 654 l 447 566 l 494 562 l 443 463 q 143 485 338 485 l 143 342 q 297 368 217 368 q 452 332 380 368 q 533 220 533 290 q 391 35 533 104 q 216 0 317 0 q 81 21 183 0 l 192 115 q 346 77 248 77 q 410 93 391 77 q 429 154 429 110 q 353 267 429 229 q 210 297 294 297 q 82 267 133 297 l 82 564 l 366 564 l 366 654 l -11 654 l -11 736 l 576 736 l 576 654 z "},"6":{"ha":624,"x_min":-12,"x_max":629,"o":"m 629 654 l 236 654 l 236 546 q 363 579 286 579 q 522 541 460 579 q 570 504 547 526 l 463 444 q 294 510 433 510 q 243 507 275 510 q 166 392 202 504 q 149 275 149 339 q 363 376 222 376 q 505 337 441 376 q 579 218 579 291 q 439 32 579 97 q 278 0 371 0 q 62 145 97 0 q 49 261 49 202 q 115 458 49 381 q 149 493 139 486 l 150 654 l -12 654 l -12 736 l 629 736 l 629 654 m 486 163 q 424 267 486 230 q 300 297 372 297 q 151 252 202 297 q 223 117 151 172 q 372 65 290 65 q 486 163 486 65 z "},"7":{"ha":562,"x_min":-7,"x_max":571,"o":"m 571 654 l 176 654 l 176 564 l 525 566 l 265 0 l 151 0 q 202 77 166 29 q 258 152 248 138 q 412 489 347 288 q 134 450 280 489 q 49 422 79 435 l 86 570 l 86 654 l -7 654 l -7 736 l 571 736 l 571 654 z "},"8":{"ha":539,"x_min":-7,"x_max":545,"o":"m 545 654 l 212 654 l 212 558 q 309 575 243 575 q 447 538 401 575 q 473 478 473 516 q 354 314 473 371 q 466 266 416 306 q 497 197 497 241 q 338 24 497 83 q 211 0 271 0 q 98 29 151 0 q 35 119 35 64 q 149 257 35 182 q 66 313 119 274 q 29 399 29 348 q 125 525 29 459 l 125 654 l -7 654 l -7 736 l 545 736 l 545 654 m 366 425 q 288 496 366 477 q 224 504 255 504 q 119 444 119 504 q 248 334 119 377 q 302 318 296 318 q 356 382 332 318 q 366 425 366 408 m 396 134 q 313 218 396 186 q 195 245 241 245 q 153 225 173 245 q 134 182 134 204 q 191 98 134 134 q 293 68 241 68 q 396 134 396 68 z "},"9":{"ha":631,"x_min":-8,"x_max":633,"o":"m 633 654 l 231 654 l 231 541 q 339 568 292 568 q 576 317 576 568 q 414 40 576 127 q 260 0 339 0 q 62 61 161 0 l 155 125 q 339 72 258 72 q 476 298 476 72 q 269 200 402 200 q 122 237 182 200 q 50 363 51 280 q 138 490 50 427 l 138 654 l -8 654 l -8 736 l 633 736 l 633 654 m 471 332 q 361 472 471 416 q 264 497 313 497 q 135 418 135 497 q 234 291 135 335 q 318 272 277 272 q 406 285 356 272 q 471 332 471 302 z "}," ":{"ha":373,"x_min":0,"x_max":0,"o":""},"!":{"ha":306,"x_min":45,"x_max":271,"o":"m 248 1109 q 221 654 236 956 q 208 321 213 490 l 97 254 q 90 522 96 370 l 66 1078 l 248 1109 m 271 119 q 167 0 248 81 q 45 115 138 22 q 131 212 97 174 q 158 236 153 236 q 201 193 168 228 l 271 119 z "},"\"":{"ha":396,"x_min":-8,"x_max":403,"o":"m 359 899 q 248 963 301 899 q 225 1015 225 991 q 245 1062 225 1036 q 285 1088 265 1088 l 355 1022 q 310 965 310 985 q 330 930 310 950 l 359 899 m 161 899 q 50 963 102 899 q 26 1015 26 991 q 46 1062 26 1036 q 86 1088 66 1088 l 157 1022 q 111 965 111 985 q 140 920 111 948 q 161 899 154 907 m 403 654 l -8 654 l -8 736 l 403 736 l 403 654 z "},"#":{"ha":545,"x_min":5,"x_max":482,"o":"m 482 654 l 385 654 l 370 525 l 456 525 l 456 441 l 357 441 l 335 262 l 253 262 l 277 441 l 171 441 l 149 262 l 66 262 l 92 441 l 5 441 l 5 525 l 104 525 l 119 654 l 33 654 l 33 737 l 132 737 l 155 918 l 235 918 l 211 737 l 315 737 l 340 918 l 419 918 l 396 737 l 482 737 l 482 654 m 307 654 l 200 654 l 182 525 l 288 525 l 307 654 z "},"$":{"ha":522,"x_min":-14,"x_max":528,"o":"m 528 654 l 297 654 l 297 539 q 438 508 382 539 q 467 492 457 497 q 379 416 437 467 q 337 438 359 427 l 294 458 l 294 318 q 436 269 378 307 q 476 200 476 243 q 370 60 476 129 q 296 29 326 32 l 296 -32 l 239 -32 l 239 22 q 60 66 123 22 l 134 142 q 237 110 180 110 l 237 237 q 151 261 179 250 q 57 370 57 296 q 132 473 57 417 q 233 528 199 524 l 233 654 l -12 654 l -14 736 l 528 736 l 528 654 m 239 334 l 239 471 q 172 460 206 471 q 127 419 127 446 q 239 334 127 353 m 410 132 q 296 225 410 212 l 296 98 l 359 103 q 410 132 406 106 z "},"%":{"ha":522,"x_min":-11,"x_max":533,"o":"m 533 654 l 500 654 l 56 -21 l -11 -21 l 433 654 l -8 654 l -8 736 l 533 736 l 533 654 m 253 490 q 215 395 253 433 q 121 357 177 357 q 51 380 83 357 q 9 440 20 404 q 4 482 4 460 q 103 607 4 571 q 135 612 118 612 q 199 591 170 612 q 253 490 253 553 m 489 132 q 476 81 489 102 q 357 3 444 3 q 342 4 352 3 q 328 5 332 5 q 244 86 260 28 q 237 111 242 88 q 252 182 237 159 q 307 239 271 212 q 338 253 313 243 q 367 257 352 257 q 479 182 443 257 q 489 132 489 156 m 211 469 q 155 583 211 546 q 115 595 136 591 q 97 590 108 595 q 93 576 93 586 q 111 557 93 557 q 118 563 113 557 q 126 568 123 568 q 136 554 136 564 q 125 538 135 551 q 102 530 112 530 q 74 574 74 530 q 71 575 73 575 q 43 481 43 553 q 126 375 62 385 q 187 397 172 375 q 211 469 211 422 m 447 114 q 390 229 447 193 q 351 240 377 237 q 332 236 338 240 q 328 211 328 229 q 347 203 334 203 q 354 208 350 203 q 361 214 358 214 q 370 201 370 209 q 359 183 368 191 q 336 178 346 178 q 319 182 328 178 q 310 220 310 192 q 307 221 309 221 q 278 126 278 198 q 361 21 296 31 q 422 43 406 21 q 447 114 447 70 z "},"&":{"ha":558,"x_min":-11,"x_max":572,"o":"m 572 736 l 571 654 l 435 654 q 433 541 435 593 l 354 489 q 215 528 310 528 q 139 469 139 528 q 307 375 139 393 l 425 363 l 375 300 q 170 246 248 300 q 134 191 134 221 q 173 129 134 161 q 354 68 245 68 q 427 100 427 67 q 385 148 427 122 q 321 171 347 171 l 203 171 l 204 189 q 235 207 214 195 l 411 207 q 541 245 486 207 q 474 165 516 186 l 458 157 q 468 126 468 150 q 385 20 468 57 q 260 0 338 0 q 68 62 142 0 q 29 144 29 95 q 96 249 29 197 q 182 302 114 263 q 187 311 187 309 q 180 318 187 315 q 100 347 138 322 q 56 415 56 377 q 135 517 56 467 q 354 574 222 574 l 354 622 q 353 654 354 650 l -11 654 l -11 736 l 572 736 z "},"'":{"ha":201,"x_min":-8,"x_max":204,"o":"m 170 1015 q 92 917 170 961 q 35 899 60 899 q 77 944 50 913 q 85 965 85 954 q 39 1022 85 985 l 110 1088 q 151 1061 130 1088 q 170 1015 170 1036 m 204 654 l -8 654 l -8 736 l 204 736 l 204 654 z "},"(":{"ha":473,"x_min":22,"x_max":545,"o":"m 545 -164 q 456 -182 507 -182 q 235 -95 337 -182 q 90 98 146 -21 q 22 436 22 239 q 98 789 22 646 q 422 1109 187 959 q 426 1101 423 1106 q 427 1096 427 1099 q 359 1029 427 1092 q 280 954 287 962 q 157 576 155 813 q 254 156 158 334 q 545 -164 345 -12 z "},")":{"ha":473,"x_min":-61,"x_max":461,"o":"m 461 486 q 431 241 461 343 q 314 26 397 126 q 62 -187 227 -80 q 60 -180 62 -185 q 58 -174 58 -176 q 125 -107 58 -170 l 203 -33 q 326 346 326 84 q 231 766 326 589 q -61 1086 140 933 q 28 1104 -23 1104 q 318 948 189 1104 q 461 486 461 775 z "},"*":{"ha":433,"x_min":14,"x_max":375,"o":"m 66 920 q 14 1002 14 930 q 45 1016 24 1007 q 61 1018 54 1018 q 113 988 87 1018 q 134 961 117 983 q 182 917 167 924 q 153 1017 182 933 q 146 1051 146 1037 q 196 1109 146 1082 q 241 1051 241 1074 q 226 1006 241 1038 q 216 985 217 987 q 205 918 205 937 q 264 978 218 925 q 329 1021 302 1021 q 375 1002 343 1021 q 352 926 375 939 q 317 920 339 920 q 214 900 252 920 q 277 878 228 888 q 349 860 334 866 q 371 819 371 850 q 374 786 374 810 q 321 772 345 772 q 264 822 297 780 q 207 879 229 867 q 220 806 207 842 l 232 780 q 241 746 241 760 q 214 704 241 726 l 196 689 q 146 743 146 716 q 170 803 146 756 q 182 879 182 827 q 142 840 163 869 q 107 794 115 802 q 65 772 85 772 q 14 786 60 774 l 20 818 q 75 871 30 871 q 178 900 125 871 q 93 922 105 922 q 66 920 87 922 z "},"+":{"ha":518,"x_min":-8,"x_max":526,"o":"m 228 311 l 228 427 l 296 496 l 296 311 l 481 311 l 412 241 l 296 241 l 296 123 l 228 60 l 228 241 l 45 241 l 109 311 l 228 311 m 526 736 l 526 654 l -8 654 l -8 736 l 526 736 z "},",":{"ha":199,"x_min":-8,"x_max":204,"o":"m 204 654 l -8 654 l -8 736 l 204 736 l 204 654 m 170 -14 q 93 -112 170 -66 q 35 -131 61 -131 q 77 -85 50 -117 q 85 -64 85 -74 q 39 -7 85 -43 l 110 58 q 150 33 131 58 q 170 -14 170 8 z "},"-":{"ha":452,"x_min":-7,"x_max":460,"o":"m 460 654 l -7 654 l -7 736 l 460 736 l 460 654 m 412 403 q 378 379 407 396 l 330 351 l 56 351 l 136 403 l 412 403 z "},"‐":{"ha":452,"x_min":-7,"x_max":460,"o":"m 460 654 l -7 654 l -7 736 l 460 736 l 460 654 m 412 403 q 378 379 407 396 l 330 351 l 56 351 l 136 403 l 412 403 z "},".":{"ha":243,"x_min":-7,"x_max":254,"o":"m 254 654 l -7 654 l -7 736 l 254 736 l 254 654 m 207 46 q 163 15 197 37 q 119 -7 128 -7 q 84 18 116 -7 q 47 47 55 40 l 122 107 q 207 46 130 107 z "},"/":{"ha":803,"x_min":35,"x_max":774,"o":"m 774 1109 l 123 -182 l 35 -182 l 685 1109 l 774 1109 z "},":":{"ha":243,"x_min":-7,"x_max":254,"o":"m 254 654 l -7 654 l -7 736 l 254 736 l 254 654 m 207 471 q 166 440 203 463 q 119 418 128 418 q 84 441 115 418 q 47 472 53 465 l 122 532 q 207 471 130 532 m 207 82 q 163 51 197 73 q 119 29 128 29 q 47 83 102 29 l 122 143 q 207 82 130 143 z "},";":{"ha":243,"x_min":-7,"x_max":254,"o":"m 254 654 l -7 654 l -7 736 l 254 736 l 254 654 m 207 471 q 166 440 203 463 q 119 418 128 418 q 84 441 115 418 q 47 472 53 465 l 122 532 q 207 471 130 532 m 170 90 q 92 -8 170 36 q 35 -26 60 -26 q 77 18 50 -13 q 85 40 85 28 q 39 97 85 60 l 110 161 q 150 136 130 161 q 170 90 170 110 z "},"<":{"ha":428,"x_min":-8,"x_max":437,"o":"m 66 307 q 159 220 98 284 l 202 174 q 350 33 233 142 l 364 25 q 378 12 378 18 q 332 3 372 9 l 297 -3 q 267 24 289 -3 l 237 60 q 147 151 222 76 l 7 293 q 0 307 0 300 q 7 321 0 314 l 237 554 l 267 589 q 297 616 289 616 q 332 611 304 616 q 378 602 375 604 q 350 581 378 597 q 243 479 326 558 q 118 353 215 451 q 66 307 89 323 m 437 736 l 436 654 l -8 654 l -8 736 l 437 736 z "},"=":{"ha":452,"x_min":-7,"x_max":460,"o":"m 460 654 l -7 654 l -7 736 l 460 736 l 460 654 m 412 484 q 330 432 402 472 l 56 432 l 136 484 l 412 484 m 412 375 q 378 351 407 368 l 330 323 l 56 323 l 136 375 l 412 375 z "},">":{"ha":435,"x_min":-8,"x_max":443,"o":"m 379 307 q 371 293 379 299 q 307 227 370 292 l 209 127 q 142 60 176 94 q 106 17 128 46 q 82 -3 94 -3 q 58 1 75 -1 l 47 3 q 1 12 7 8 q 16 25 1 16 l 29 33 q 74 75 35 37 l 136 135 q 203 200 153 151 l 269 269 q 313 307 292 292 q 226 387 283 328 q 136 479 201 413 l 129 487 q 29 581 80 536 q 6 595 18 587 q 1 602 1 598 q 47 611 5 604 q 82 616 56 612 q 113 590 92 616 q 142 554 121 581 q 182 514 149 547 l 331 362 q 371 321 335 358 q 379 307 379 315 m 443 736 l 441 654 l -8 654 l -8 736 l 443 736 z "},"?":{"ha":530,"x_min":-11,"x_max":539,"o":"m 539 654 l -9 654 l -11 736 l 539 736 l 539 654 m 493 433 q 364 284 493 369 q 306 241 309 248 q 297 168 297 224 l 187 136 q 172 182 172 142 q 264 289 172 202 q 357 412 357 375 q 201 504 357 504 q 115 495 146 504 q 33 460 91 488 q 271 571 119 571 q 410 536 340 571 q 493 433 493 495 m 334 52 q 250 0 269 0 q 207 22 242 0 q 164 46 197 27 q 205 83 176 60 q 249 110 239 110 q 334 52 262 102 z "},"@":{"ha":514,"x_min":-8,"x_max":526,"o":"m 300 400 q 289 449 300 440 q 257 460 275 460 q 224 449 238 460 q 187 359 187 420 q 192 321 187 347 q 240 257 200 277 q 298 264 283 257 q 300 400 298 318 m 243 654 l -8 654 l -8 736 l 526 736 l 525 654 l 282 654 l 282 600 q 403 561 353 595 q 489 393 489 502 q 463 292 489 336 q 380 232 433 241 l 374 233 q 363 235 367 234 q 330 239 348 239 q 283 234 315 239 q 236 229 252 229 q 180 244 208 229 q 119 366 119 277 q 193 471 132 446 q 237 479 216 479 q 296 468 266 479 q 321 475 302 475 q 375 454 324 474 q 378 450 378 452 q 374 444 378 449 q 370 435 370 439 q 368 425 370 431 l 366 419 q 371 261 366 313 l 375 261 q 419 304 399 261 q 444 397 444 345 q 350 557 444 515 q 258 576 308 576 q 94 518 155 576 q 32 357 32 460 q 45 288 32 322 q 132 185 69 222 q 264 151 190 151 q 419 214 372 151 l 414 160 q 271 121 339 121 q 64 203 133 121 q 8 349 7 271 q 94 545 10 471 q 243 600 149 592 l 243 654 z "},"A":{"ha":660,"x_min":-17,"x_max":663,"o":"m 663 654 l 211 654 l 211 546 q 216 543 214 546 q 221 541 219 541 q 215 541 216 541 q 316 563 215 545 q 390 570 353 570 q 586 484 543 570 q 615 254 615 427 l 615 -7 q 507 37 601 -1 q 498 65 507 59 q 439 33 463 44 q 269 -1 366 -1 q 63 83 136 -1 q 28 174 28 123 q 83 286 28 230 q 351 393 191 393 q 507 349 448 393 l 507 411 q 449 462 477 449 q 372 473 421 475 q 172 433 263 471 q 93 403 132 416 l 93 453 q 119 475 102 460 q 122 479 121 479 l 122 654 l -17 654 l -17 736 l 663 736 l 663 654 m 507 225 q 436 279 507 255 q 338 298 377 298 q 109 195 195 298 q 74 127 74 154 q 186 78 88 78 q 416 141 312 78 q 507 225 507 196 z "},"B":{"ha":737,"x_min":-122,"x_max":743,"o":"m 743 654 l 228 654 l 228 401 q 362 522 284 471 q 468 557 415 557 q 648 475 575 557 q 715 311 715 399 q 617 105 715 210 q 418 0 519 0 q 309 46 366 0 q 222 131 292 60 l 222 -8 l 104 43 l 104 654 l -7 654 l -7 736 l 104 736 q 14 1053 104 897 q -122 1232 -57 1175 l 26 1232 q 144 1088 94 1175 q 228 736 228 941 l 743 736 l 743 654 m 640 241 q 570 378 640 304 q 387 460 491 460 q 265 395 322 460 q 243 357 243 370 q 293 227 243 300 q 511 71 399 71 q 623 162 583 71 q 640 241 640 202 z "},"C":{"ha":708,"x_min":-11,"x_max":718,"o":"m 718 654 l 576 654 l 576 465 q 631 412 621 424 q 665 345 648 390 l 575 345 q 533 460 575 418 q 418 501 492 501 q 273 458 340 501 q 170 349 209 418 q 132 221 132 283 q 184 111 132 149 q 306 77 231 77 q 481 146 431 77 l 625 146 q 490 22 607 73 q 393 0 438 0 q 217 50 306 0 q 77 170 132 96 q 22 315 22 243 q 71 438 22 370 q 317 582 172 582 q 468 542 412 582 l 468 654 l -11 654 l -11 736 l 718 736 l 718 654 z "},"D":{"ha":770,"x_min":-14,"x_max":781,"o":"m 781 654 l 692 654 l 690 -8 l 567 45 l 567 142 q 351 0 457 0 q 205 56 284 0 q 92 169 137 104 q 40 317 39 245 q 113 469 41 382 q 307 567 193 567 q 453 505 380 567 q 567 387 475 487 l 567 654 l -14 654 l -14 736 l 567 736 q 543 956 567 876 q 386 1236 508 1074 q 383 1247 383 1238 q 387 1258 383 1255 l 517 1258 q 692 736 692 1065 l 781 736 l 781 654 m 534 346 q 477 437 534 399 q 370 471 425 471 q 268 433 329 471 q 135 237 135 350 q 168 130 135 176 q 264 79 205 79 q 394 135 325 79 q 484 230 442 174 q 534 346 534 299 z "},"E":{"ha":705,"x_min":-9,"x_max":714,"o":"m 714 654 l 529 654 l 529 521 q 575 503 561 513 l 575 422 q 407 450 494 450 q 285 429 344 450 q 205 350 206 401 q 359 296 204 296 q 404 298 363 296 l 444 300 l 444 237 q 329 233 352 235 q 167 139 167 218 q 223 70 167 95 q 318 50 267 50 q 675 245 538 50 l 675 74 q 399 0 558 0 q 98 81 224 0 q 36 171 36 120 q 79 257 36 220 q 167 309 106 279 l 122 334 q 82 396 82 357 q 209 517 82 480 q 425 545 305 545 l 425 654 l -9 654 l -9 736 l 714 736 l 714 654 z "},"F":{"ha":439,"x_min":-8,"x_max":450,"o":"m 450 654 l 225 654 l 225 -5 q 107 47 218 -5 l 107 654 l -8 654 l -8 736 l 102 736 q 71 795 102 752 l 31 851 q 14 917 14 881 q 44 998 14 955 q 107 1059 71 1036 q 214 1088 153 1088 q 395 1002 338 1088 q 427 908 421 962 q 277 1002 366 1002 q 164 944 203 1002 q 146 888 146 917 q 220 774 146 842 q 225 736 225 759 l 450 736 l 450 654 z "},"G":{"ha":676,"x_min":-192,"x_max":705,"o":"m 705 -110 q 583 -236 705 -236 q 426 -184 529 -236 q 235 -127 312 -127 q -79 -258 68 -127 q -189 -407 -149 -321 q -192 -372 -192 -396 q -143 -210 -192 -291 q -27 -85 -98 -136 q 155 -29 53 -29 q 278 -53 226 -29 q 385 -119 306 -66 q 489 -165 453 -165 q 631 -92 578 -165 q 654 -29 654 -60 q 622 61 654 24 q 536 97 589 97 q 376 48 488 97 q 215 -1 264 -1 q 128 35 179 -1 q 22 175 22 110 q 62 241 22 211 q 136 272 98 269 l 138 279 l 104 326 q 77 411 77 366 q 332 567 77 567 q 342 579 339 568 l 342 654 l -9 654 l -9 736 l 688 736 l 688 654 l 447 654 l 447 541 q 465 501 447 509 q 494 522 477 501 l 520 553 q 557 567 530 564 q 638 518 600 567 q 661 473 656 496 l 590 392 q 577 449 589 423 q 536 484 562 484 q 514 475 527 484 q 501 457 501 466 q 510 433 501 447 q 522 412 520 416 q 526 372 526 396 q 452 248 526 281 q 296 227 402 227 q 111 166 160 227 q 92 127 91 142 q 112 92 92 107 q 153 77 132 77 q 301 130 191 77 q 510 195 431 193 q 632 130 583 196 q 690 -3 672 78 q 705 -110 705 -74 m 441 435 q 354 517 441 517 q 220 467 283 517 q 153 346 153 414 q 181 282 153 309 q 248 256 210 256 q 335 283 286 255 q 407 342 378 309 q 441 435 441 382 z "},"H":{"ha":737,"x_min":-153,"x_max":745,"o":"m 745 654 l 197 654 l 197 450 q 334 554 271 531 q 414 567 370 567 q 661 404 579 567 q 697 264 697 333 q 593 36 697 138 q 542 -11 559 2 l 431 56 q 526 164 473 100 q 587 347 587 237 q 557 457 588 413 q 460 507 523 509 q 335 463 401 506 q 236 372 275 425 q 193 262 193 315 l 193 -7 l 66 61 l 66 654 l -8 654 l -8 736 l 66 736 q -37 1076 66 935 q -153 1196 -100 1161 l -16 1197 q 165 928 98 1135 q 197 736 197 829 l 745 736 l 745 654 z "},"I":{"ha":264,"x_min":-20,"x_max":269,"o":"m 229 807 q 214 804 227 804 q 195 807 203 804 l 151 897 q 77 955 123 940 q 20 989 31 970 q -20 1084 9 1020 l -20 1100 l 7 1100 q 92 1069 59 1084 q 163 1015 145 1046 q 195 928 174 998 q 228 836 214 862 q 229 807 229 824 m 269 654 l -7 654 l -7 736 l 269 736 l 269 654 m 192 -16 l 78 47 l 78 571 l 192 571 l 192 -16 z "},"J":{"ha":339,"x_min":-92,"x_max":371,"o":"m 275 807 q 260 804 271 804 q 239 807 250 804 q 176 924 185 912 q 96 962 161 944 q 64 989 75 968 q 46 1044 58 1008 q 25 1084 37 1065 l 25 1100 l 53 1100 q 138 1069 109 1083 q 209 1013 189 1046 q 240 926 220 994 q 272 836 249 895 q 275 807 275 816 m 371 654 l -37 654 l -37 736 l 371 736 l 371 654 m 278 -261 q 189 -376 278 -328 q 100 -399 148 -399 q -13 -361 44 -399 q -92 -272 -70 -323 l 14 -191 q 110 -363 26 -363 q 158 -306 158 -363 l 158 571 l 278 571 l 278 -261 z "},"K":{"ha":624,"x_min":-109,"x_max":632,"o":"m 632 654 l 187 654 l 187 479 q 318 540 227 503 q 408 550 355 550 q 538 510 481 550 q 602 396 602 466 q 494 259 602 302 q 416 241 449 241 l 574 50 l 488 -12 l 245 275 l 290 368 q 366 358 326 358 q 460 385 423 358 q 501 471 501 415 q 424 525 501 525 q 309 473 370 525 q 229 382 265 435 q 186 273 186 319 l 186 -11 l 69 41 l 69 654 l -17 654 l -17 736 l 65 736 q -5 1059 65 930 q -58 1135 -19 1084 q -109 1211 -94 1183 l 29 1211 q 112 1088 69 1174 q 184 736 184 943 l 632 736 l 632 654 z "},"L":{"ha":289,"x_min":-102,"x_max":300,"o":"m 300 654 l 228 654 l 228 736 l 300 736 l 300 654 m 68 654 l -9 654 l -9 736 l 68 736 l 68 654 m 205 818 l 205 -17 q 188 -9 199 -15 l 153 9 q 89 40 92 40 l 89 817 q 61 968 89 888 q -59 1171 22 1080 l -102 1219 l 43 1219 q 191 943 155 1107 q 205 818 205 874 z "},"M":{"ha":1025,"x_min":-14,"x_max":1034,"o":"m 1034 654 l 810 654 l 811 559 q 944 471 903 526 q 986 317 986 414 q 874 77 986 177 q 810 27 853 58 q 742 -11 756 -11 q 611 109 728 -11 q 761 155 683 113 q 886 251 835 194 q 942 380 942 312 q 867 475 942 448 q 794 486 830 488 q 525 231 574 477 l 386 288 q 430 415 386 345 q 447 444 446 441 q 355 476 447 476 q 173 373 238 476 q 144 282 144 328 q 232 102 144 187 l 361 -22 q 142 96 243 18 q 7 317 7 199 q 157 539 7 466 q 293 571 223 571 q 472 517 382 571 q 511 496 506 497 q 625 544 563 518 q 690 562 657 557 l 692 654 l -14 654 l -14 736 l 1034 736 l 1034 654 z "},"N":{"ha":711,"x_min":-7,"x_max":722,"o":"m 722 654 l -7 654 l -7 736 l 722 736 l 722 654 m 576 357 q 422 519 576 519 q 232 400 309 519 q 164 175 164 294 l 164 -22 l 53 36 l 53 546 l 170 546 l 170 465 l 230 511 q 399 571 310 571 q 599 477 519 571 q 673 267 673 389 q 543 -29 673 113 l 412 53 q 516 164 473 113 q 576 357 576 236 z "},"O":{"ha":711,"x_min":-12,"x_max":724,"o":"m 724 654 l 571 654 l 571 468 q 625 408 571 462 q 667 264 667 357 q 529 34 667 109 q 387 -1 464 -1 q 158 97 276 -1 q 35 321 35 200 q 75 436 35 376 q 161 525 111 490 q 309 567 222 567 q 449 542 356 567 q 453 547 453 542 l 453 654 l -12 654 l -12 736 l 724 736 l 724 654 m 567 354 q 483 482 567 450 q 429 494 452 494 q 248 419 345 494 q 135 195 135 331 q 208 90 135 131 q 275 72 241 72 q 460 153 359 72 q 567 354 567 240 z "},"P":{"ha":757,"x_min":-8,"x_max":770,"o":"m 770 654 l -8 654 l -8 736 l 770 736 l 770 654 m 715 279 q 671 138 715 205 q 562 38 629 77 q 436 -1 494 -1 q 296 62 380 -1 q 176 167 255 92 l 176 -408 l 68 -351 l 68 546 l 174 546 l 174 380 l 215 424 q 447 574 358 574 q 631 474 543 574 q 715 279 715 377 m 648 358 q 595 457 648 410 q 528 481 568 481 q 329 384 448 481 q 207 207 207 284 q 292 127 207 161 q 366 111 330 111 q 570 202 484 111 q 648 358 648 283 z "},"Q":{"ha":781,"x_min":-8,"x_max":790,"o":"m 790 736 l 790 654 l -8 654 l -8 736 l 790 736 m 718 -363 l 596 -427 l 596 176 q 313 -3 436 -3 q 151 80 237 -3 q 54 294 56 172 q 98 420 54 347 q 290 575 191 575 q 487 492 371 575 q 596 382 547 448 l 596 528 l 718 528 l 718 -363 m 566 200 q 492 333 566 262 q 381 417 452 372 q 257 471 297 471 q 167 441 212 471 q 117 366 117 409 q 157 252 117 317 q 389 111 247 111 q 543 165 485 111 q 566 200 566 186 z "},"R":{"ha":667,"x_min":-7,"x_max":679,"o":"m 679 654 l -7 654 l -7 736 l 679 736 l 679 654 m 623 411 q 574 321 623 371 q 489 257 534 278 l 387 372 q 475 406 433 376 q 522 484 522 440 q 492 523 522 507 q 441 538 467 538 q 330 488 389 538 q 208 262 208 386 l 208 -25 l 78 43 l 78 545 l 210 545 l 210 493 q 330 554 239 522 q 422 570 375 570 q 589 494 521 570 q 623 411 623 458 z "},"S":{"ha":682,"x_min":-11,"x_max":689,"o":"m 689 654 l 615 654 l 615 397 q 500 438 575 421 q 378 454 429 454 q 170 410 254 454 q 122 345 122 385 q 179 290 122 290 q 269 311 214 290 q 361 343 305 323 q 446 351 385 351 q 621 279 563 351 q 648 197 648 244 q 513 28 648 90 q 406 -1 456 2 q 498 -50 454 -50 q 529 -46 513 -50 l 597 -158 q 511 -176 576 -176 q 422 -140 458 -176 q 366 -58 402 -121 q 315 -4 336 -5 q 122 41 190 -1 q 79 114 79 68 q 147 171 79 171 q 252 132 172 171 q 383 93 332 93 q 576 142 486 93 q 621 200 621 165 q 539 252 621 252 q 377 215 514 252 q 278 193 296 193 q 100 295 170 193 q 66 400 66 344 q 223 555 66 515 q 345 571 288 571 q 529 539 410 571 l 529 654 l -11 654 l -11 736 l 689 736 l 689 654 z "},"T":{"ha":591,"x_min":-7,"x_max":600,"o":"m 600 654 l 257 654 l 257 109 q 272 64 257 85 q 310 40 288 40 q 411 249 411 40 l 547 171 q 306 -1 469 -2 q 158 85 211 -1 q 135 160 135 123 l 135 654 l -7 654 l -7 736 l 135 736 l 135 964 l 257 879 l 257 736 l 600 736 l 600 654 z "},"U":{"ha":754,"x_min":-20,"x_max":760,"o":"m 760 654 l 192 654 l 192 220 q 210 130 192 176 q 334 36 248 36 q 510 133 450 36 q 557 273 557 208 l 557 543 l 694 543 l 694 -35 q 633 -5 678 -25 l 555 29 l 555 83 q 418 9 475 25 q 336 0 384 0 q 101 132 186 0 q 62 264 62 193 l 62 654 l -20 654 l -20 736 l 760 736 l 760 654 z "},"V":{"ha":864,"x_min":-11,"x_max":842,"o":"m 842 736 l 840 654 l 771 654 l 771 525 q 714 422 759 500 l 473 -1 q 315 94 413 -1 q 208 326 208 199 q 250 448 208 391 q 269 486 269 473 q 229 510 269 510 q 172 486 199 510 q 127 437 161 477 l 40 517 q 127 564 85 555 q 182 568 149 568 q 366 372 366 570 q 360 293 366 346 q 354 214 354 240 q 392 97 354 106 q 441 149 413 97 l 648 522 l 648 654 l -11 654 l -11 736 l 842 736 z "},"W":{"ha":1061,"x_min":-9,"x_max":1071,"o":"m 1071 736 l 1069 654 l 1007 654 l 1007 237 q 918 71 1007 146 q 739 0 833 0 q 546 79 648 0 q 335 0 458 0 q 210 39 273 0 q 113 130 152 75 q 71 260 71 190 q 121 439 71 353 q 249 576 169 524 q 351 468 294 527 q 241 368 296 420 q 164 201 164 294 q 267 58 164 58 q 411 109 349 58 q 495 239 471 158 q 517 329 513 299 l 647 262 q 612 156 643 211 q 591 125 597 131 q 681 94 611 94 q 863 177 802 94 q 890 257 890 215 l 889 654 l -9 654 l -9 736 l 1071 736 z "},"X":{"ha":653,"x_min":-11,"x_max":657,"o":"m 657 654 l 576 654 l 576 564 q 575 515 576 543 q 564 478 574 506 l 355 221 q 415 142 355 181 q 467 125 441 125 q 563 170 511 125 q 611 227 591 195 l 611 11 q 528 -14 611 -13 q 383 66 425 -15 q 332 192 366 120 l 170 0 l 4 0 l 257 288 q 158 386 256 386 q 117 384 144 386 q 75 382 89 382 l 75 574 q 236 482 186 574 q 274 388 258 441 l 292 329 l 437 514 q 447 538 444 525 l 447 654 l -11 654 l -11 736 l 657 736 l 657 654 z "},"Y":{"ha":770,"x_min":-37,"x_max":779,"o":"m 779 736 l 778 654 l 205 654 l 207 254 q 237 126 207 166 q 358 78 272 82 q 468 114 413 75 q 549 200 517 148 q 583 311 583 257 l 582 567 l 724 518 l 724 -176 q 607 -383 724 -303 q 354 -457 499 -457 q 5 -323 109 -457 q -37 -231 -37 -269 q 58 -88 -37 -146 q 231 -37 141 -37 l 317 -153 q 108 -202 200 -161 q 47 -272 47 -229 q 140 -381 55 -334 q 272 -410 191 -410 q 551 -290 457 -410 q 596 -157 596 -233 l 596 119 q 361 47 552 47 q 117 157 200 47 q 77 279 77 211 l 77 654 l -20 654 l -20 736 l 779 736 z "},"Z":{"ha":777,"x_min":-9,"x_max":791,"o":"m 791 654 l 196 654 l 196 575 l 720 575 l 354 149 q 484 90 380 122 q 583 74 533 74 q 670 91 642 74 q 718 164 703 111 q 725 125 725 142 q 653 -1 725 43 q 567 -22 617 -22 q 353 33 454 -22 l 289 68 q 134 -3 239 -4 q 63 18 96 -2 q 25 75 25 40 q 92 167 25 132 q 210 195 146 195 q 249 191 229 195 l 504 498 q 56 431 263 498 l 111 564 l 111 654 l -9 654 l -9 737 l 791 737 l 791 654 z "},"[":{"ha":386,"x_min":87,"x_max":347,"o":"m 197 904 l 197 -174 l 306 -174 l 347 -272 l 87 -272 l 87 1003 l 347 1003 l 306 904 l 197 904 z "},"\\":{"ha":803,"x_min":35,"x_max":775,"o":"m 775 -182 l 685 -182 l 35 1109 l 125 1109 l 775 -182 z "},"]":{"ha":386,"x_min":39,"x_max":298,"o":"m 189 -174 l 189 904 l 81 904 l 39 1003 l 298 1003 l 298 -272 l 39 -272 l 81 -174 l 189 -174 z "},"^":{"ha":654,"x_min":1,"x_max":600,"o":"m 240 852 q 298 856 264 856 q 361 852 336 856 q 374 847 370 852 q 600 458 500 680 q 595 450 600 450 q 527 464 572 450 q 460 478 483 478 q 450 485 453 478 q 298 730 401 606 q 212 614 241 658 q 149 486 174 557 q 136 478 144 478 q 72 464 114 478 q 7 450 29 450 q 1 460 1 450 q 229 847 90 673 q 240 852 235 852 z "},"_":{"ha":562,"x_min":-12,"x_max":639,"o":"m 639 -52 l 589 -134 l -12 -134 l -12 -52 l 639 -52 m 583 736 l 582 654 l -8 654 l -8 736 l 583 736 z "},"`":{"ha":264,"x_min":-20,"x_max":229,"o":"m 229 807 q 214 804 227 804 q 195 807 203 804 l 151 897 q 77 955 123 940 q 20 989 31 970 q -20 1084 9 1020 l -20 1100 l 7 1100 q 92 1069 59 1084 q 163 1015 145 1046 q 195 928 174 998 q 228 836 214 862 q 229 807 229 824 z "},"a":{"ha":660,"x_min":-17,"x_max":663,"o":"m 663 654 l 211 654 l 211 546 q 216 543 214 546 q 221 541 219 541 q 215 541 216 541 q 316 563 215 545 q 390 570 353 570 q 586 484 543 570 q 615 254 615 427 l 615 -7 q 507 37 601 -1 q 498 65 507 59 q 439 33 463 44 q 269 -1 366 -1 q 63 83 136 -1 q 28 174 28 123 q 83 286 28 230 q 351 393 191 393 q 507 349 448 393 l 507 411 q 449 462 477 449 q 372 473 421 475 q 172 433 263 471 q 93 403 132 416 l 93 453 q 119 475 102 460 q 122 479 121 479 l 122 654 l -17 654 l -17 736 l 663 736 l 663 654 m 507 225 q 436 279 507 255 q 338 298 377 298 q 109 195 195 298 q 74 127 74 154 q 186 78 88 78 q 416 141 312 78 q 507 225 507 196 z "},"b":{"ha":737,"x_min":-122,"x_max":743,"o":"m 743 654 l 228 654 l 228 401 q 362 522 284 471 q 468 557 415 557 q 648 475 575 557 q 715 311 715 399 q 617 105 715 210 q 418 0 519 0 q 309 46 366 0 q 222 131 292 60 l 222 -8 l 104 43 l 104 654 l -7 654 l -7 736 l 104 736 q 14 1053 104 897 q -122 1232 -57 1175 l 26 1232 q 144 1088 94 1175 q 228 736 228 941 l 743 736 l 743 654 m 640 241 q 570 378 640 304 q 387 460 491 460 q 265 395 322 460 q 243 357 243 370 q 293 227 243 300 q 511 71 399 71 q 623 162 583 71 q 640 241 640 202 z "},"c":{"ha":708,"x_min":-11,"x_max":718,"o":"m 718 654 l 576 654 l 576 465 q 631 412 621 424 q 665 345 648 390 l 575 345 q 533 460 575 418 q 418 501 492 501 q 273 458 340 501 q 170 349 209 418 q 132 221 132 283 q 184 111 132 149 q 306 77 231 77 q 481 146 431 77 l 625 146 q 490 22 607 73 q 393 0 438 0 q 217 50 306 0 q 77 170 132 96 q 22 315 22 243 q 71 438 22 370 q 317 582 172 582 q 468 542 412 582 l 468 654 l -11 654 l -11 736 l 718 736 l 718 654 z "},"d":{"ha":770,"x_min":-14,"x_max":781,"o":"m 781 654 l 692 654 l 690 -8 l 567 45 l 567 142 q 351 0 457 0 q 205 56 284 0 q 92 169 137 104 q 40 317 39 245 q 113 469 41 382 q 307 567 193 567 q 453 505 380 567 q 567 387 475 487 l 567 654 l -14 654 l -14 736 l 567 736 q 543 956 567 876 q 386 1236 508 1074 q 383 1247 383 1238 q 387 1258 383 1255 l 517 1258 q 692 736 692 1065 l 781 736 l 781 654 m 534 346 q 477 437 534 399 q 370 471 425 471 q 268 433 329 471 q 135 237 135 350 q 168 130 135 176 q 264 79 205 79 q 394 135 325 79 q 484 230 442 174 q 534 346 534 299 z "},"e":{"ha":705,"x_min":-9,"x_max":714,"o":"m 714 654 l 529 654 l 529 521 q 575 503 561 513 l 575 422 q 407 450 494 450 q 285 429 344 450 q 205 350 206 401 q 359 296 204 296 q 404 298 363 296 l 444 300 l 444 237 q 329 233 352 235 q 167 139 167 218 q 223 70 167 95 q 318 50 267 50 q 675 245 538 50 l 675 74 q 399 0 558 0 q 98 81 224 0 q 36 171 36 120 q 79 257 36 220 q 167 309 106 279 l 122 334 q 82 396 82 357 q 209 517 82 480 q 425 545 305 545 l 425 654 l -9 654 l -9 736 l 714 736 l 714 654 z "},"f":{"ha":439,"x_min":-8,"x_max":450,"o":"m 450 654 l 225 654 l 225 -5 q 107 47 218 -5 l 107 654 l -8 654 l -8 736 l 102 736 q 71 795 102 752 l 31 851 q 14 917 14 881 q 44 998 14 955 q 107 1059 71 1036 q 214 1088 153 1088 q 395 1002 338 1088 q 427 908 421 962 q 277 1002 366 1002 q 164 944 203 1002 q 146 888 146 917 q 220 774 146 842 q 225 736 225 759 l 450 736 l 450 654 z "},"g":{"ha":676,"x_min":-192,"x_max":705,"o":"m 705 -110 q 583 -236 705 -236 q 426 -184 529 -236 q 235 -127 312 -127 q -79 -258 68 -127 q -189 -407 -149 -321 q -192 -372 -192 -396 q -143 -210 -192 -291 q -27 -85 -98 -136 q 155 -29 53 -29 q 278 -53 226 -29 q 385 -119 306 -66 q 489 -165 453 -165 q 631 -92 578 -165 q 654 -29 654 -60 q 622 61 654 24 q 536 97 589 97 q 376 48 488 97 q 215 -1 264 -1 q 128 35 179 -1 q 22 175 22 110 q 62 241 22 211 q 136 272 98 269 l 138 279 l 104 326 q 77 411 77 366 q 332 567 77 567 q 342 579 339 568 l 342 654 l -9 654 l -9 736 l 688 736 l 688 654 l 447 654 l 447 541 q 465 501 447 509 q 494 522 477 501 l 520 553 q 557 567 530 564 q 638 518 600 567 q 661 473 656 496 l 590 392 q 577 449 589 423 q 536 484 562 484 q 514 475 527 484 q 501 457 501 466 q 510 433 501 447 q 522 412 520 416 q 526 372 526 396 q 452 248 526 281 q 296 227 402 227 q 111 166 160 227 q 92 127 91 142 q 112 92 92 107 q 153 77 132 77 q 301 130 191 77 q 510 195 431 193 q 632 130 583 196 q 690 -3 672 78 q 705 -110 705 -74 m 441 435 q 354 517 441 517 q 220 467 283 517 q 153 346 153 414 q 181 282 153 309 q 248 256 210 256 q 335 283 286 255 q 407 342 378 309 q 441 435 441 382 z "},"h":{"ha":737,"x_min":-153,"x_max":745,"o":"m 745 654 l 197 654 l 197 450 q 334 554 271 531 q 414 567 370 567 q 661 404 579 567 q 697 264 697 333 q 593 36 697 138 q 542 -11 559 2 l 431 56 q 526 164 473 100 q 587 347 587 237 q 557 457 588 413 q 460 507 523 509 q 335 463 401 506 q 236 372 275 425 q 193 262 193 315 l 193 -7 l 66 61 l 66 654 l -8 654 l -8 736 l 66 736 q -37 1076 66 935 q -153 1196 -100 1161 l -16 1197 q 165 928 98 1135 q 197 736 197 829 l 745 736 l 745 654 z "},"i":{"ha":264,"x_min":-20,"x_max":269,"o":"m 229 807 q 214 804 227 804 q 195 807 203 804 l 151 897 q 77 955 123 940 q 20 989 31 970 q -20 1084 9 1020 l -20 1100 l 7 1100 q 92 1069 59 1084 q 163 1015 145 1046 q 195 928 174 998 q 228 836 214 862 q 229 807 229 824 m 269 654 l -7 654 l -7 736 l 269 736 l 269 654 m 192 -16 l 78 47 l 78 571 l 192 571 l 192 -16 z "},"j":{"ha":339,"x_min":-92,"x_max":371,"o":"m 275 807 q 260 804 271 804 q 239 807 250 804 q 176 924 185 912 q 96 962 161 944 q 64 989 75 968 q 46 1044 58 1008 q 25 1084 37 1065 l 25 1100 l 53 1100 q 138 1069 109 1083 q 209 1013 189 1046 q 240 926 220 994 q 272 836 249 895 q 275 807 275 816 m 371 654 l -37 654 l -37 736 l 371 736 l 371 654 m 278 -261 q 189 -376 278 -328 q 100 -399 148 -399 q -13 -361 44 -399 q -92 -272 -70 -323 l 14 -191 q 110 -363 26 -363 q 158 -306 158 -363 l 158 571 l 278 571 l 278 -261 z "},"k":{"ha":624,"x_min":-109,"x_max":632,"o":"m 632 654 l 187 654 l 187 479 q 318 540 227 503 q 408 550 355 550 q 538 510 481 550 q 602 396 602 466 q 494 259 602 302 q 416 241 449 241 l 574 50 l 488 -12 l 245 275 l 290 368 q 366 358 326 358 q 460 385 423 358 q 501 471 501 415 q 424 525 501 525 q 309 473 370 525 q 229 382 265 435 q 186 273 186 319 l 186 -11 l 69 41 l 69 654 l -17 654 l -17 736 l 65 736 q -5 1059 65 930 q -58 1135 -19 1084 q -109 1211 -94 1183 l 29 1211 q 112 1088 69 1174 q 184 736 184 943 l 632 736 l 632 654 z "},"l":{"ha":289,"x_min":-102,"x_max":300,"o":"m 300 654 l 228 654 l 228 736 l 300 736 l 300 654 m 68 654 l -9 654 l -9 736 l 68 736 l 68 654 m 205 818 l 205 -17 q 188 -9 199 -15 l 153 9 q 89 40 92 40 l 89 817 q 61 968 89 888 q -59 1171 22 1080 l -102 1219 l 43 1219 q 191 943 155 1107 q 205 818 205 874 z "},"m":{"ha":1025,"x_min":-14,"x_max":1034,"o":"m 1034 654 l 810 654 l 811 559 q 944 471 903 526 q 986 317 986 414 q 874 77 986 177 q 810 27 853 58 q 742 -11 756 -11 q 611 109 728 -11 q 761 155 683 113 q 886 251 835 194 q 942 380 942 312 q 867 475 942 448 q 794 486 830 488 q 525 231 574 477 l 386 288 q 430 415 386 345 q 447 444 446 441 q 355 476 447 476 q 173 373 238 476 q 144 282 144 328 q 232 102 144 187 l 361 -22 q 142 96 243 18 q 7 317 7 199 q 157 539 7 466 q 293 571 223 571 q 472 517 382 571 q 511 496 506 497 q 625 544 563 518 q 690 562 657 557 l 692 654 l -14 654 l -14 736 l 1034 736 l 1034 654 z "},"n":{"ha":711,"x_min":-7,"x_max":722,"o":"m 722 654 l -7 654 l -7 736 l 722 736 l 722 654 m 576 357 q 422 519 576 519 q 232 400 309 519 q 164 175 164 294 l 164 -22 l 53 36 l 53 546 l 170 546 l 170 465 l 230 511 q 399 571 310 571 q 599 477 519 571 q 673 267 673 389 q 543 -29 673 113 l 412 53 q 516 164 473 113 q 576 357 576 236 z "},"o":{"ha":711,"x_min":-12,"x_max":724,"o":"m 724 654 l 571 654 l 571 468 q 625 408 571 462 q 667 264 667 357 q 529 34 667 109 q 387 -1 464 -1 q 158 97 276 -1 q 35 321 35 200 q 75 436 35 376 q 161 525 111 490 q 309 567 222 567 q 449 542 356 567 q 453 547 453 542 l 453 654 l -12 654 l -12 736 l 724 736 l 724 654 m 567 354 q 483 482 567 450 q 429 494 452 494 q 248 419 345 494 q 135 195 135 331 q 208 90 135 131 q 275 72 241 72 q 460 153 359 72 q 567 354 567 240 z "},"p":{"ha":757,"x_min":-8,"x_max":770,"o":"m 770 654 l -8 654 l -8 736 l 770 736 l 770 654 m 715 279 q 671 138 715 205 q 562 38 629 77 q 436 -1 494 -1 q 296 62 380 -1 q 176 167 255 92 l 176 -408 l 68 -351 l 68 546 l 174 546 l 174 380 l 215 424 q 447 574 358 574 q 631 474 543 574 q 715 279 715 377 m 648 358 q 595 457 648 410 q 528 481 568 481 q 329 384 448 481 q 207 207 207 284 q 292 127 207 161 q 366 111 330 111 q 570 202 484 111 q 648 358 648 283 z "},"q":{"ha":781,"x_min":-8,"x_max":790,"o":"m 790 736 l 790 654 l -8 654 l -8 736 l 790 736 m 718 -363 l 596 -427 l 596 176 q 313 -3 436 -3 q 151 80 237 -3 q 54 294 56 172 q 98 420 54 347 q 290 575 191 575 q 487 492 371 575 q 596 382 547 448 l 596 528 l 718 528 l 718 -363 m 566 200 q 492 333 566 262 q 381 417 452 372 q 257 471 297 471 q 167 441 212 471 q 117 366 117 409 q 157 252 117 317 q 389 111 247 111 q 543 165 485 111 q 566 200 566 186 z "},"r":{"ha":667,"x_min":-7,"x_max":679,"o":"m 679 654 l -7 654 l -7 736 l 679 736 l 679 654 m 623 411 q 574 321 623 371 q 489 257 534 278 l 387 372 q 475 406 433 376 q 522 484 522 440 q 492 523 522 507 q 441 538 467 538 q 330 488 389 538 q 208 262 208 386 l 208 -25 l 78 43 l 78 545 l 210 545 l 210 493 q 330 554 239 522 q 422 570 375 570 q 589 494 521 570 q 623 411 623 458 z "},"s":{"ha":682,"x_min":-11,"x_max":689,"o":"m 689 654 l 615 654 l 615 397 q 500 438 575 421 q 378 454 429 454 q 170 410 254 454 q 122 345 122 385 q 179 290 122 290 q 269 311 214 290 q 361 343 305 323 q 446 351 385 351 q 621 279 563 351 q 648 197 648 244 q 513 28 648 90 q 406 -1 456 2 q 498 -50 454 -50 q 529 -46 513 -50 l 597 -158 q 511 -176 576 -176 q 422 -140 458 -176 q 366 -58 402 -121 q 315 -4 336 -5 q 122 41 190 -1 q 79 114 79 68 q 147 171 79 171 q 252 132 172 171 q 383 93 332 93 q 576 142 486 93 q 621 200 621 165 q 539 252 621 252 q 377 215 514 252 q 278 193 296 193 q 100 295 170 193 q 66 400 66 344 q 223 555 66 515 q 345 571 288 571 q 529 539 410 571 l 529 654 l -11 654 l -11 736 l 689 736 l 689 654 z "},"t":{"ha":591,"x_min":-7,"x_max":600,"o":"m 600 654 l 257 654 l 257 109 q 272 64 257 85 q 310 40 288 40 q 411 249 411 40 l 547 171 q 306 -1 469 -2 q 158 85 211 -1 q 135 160 135 123 l 135 654 l -7 654 l -7 736 l 135 736 l 135 964 l 257 879 l 257 736 l 600 736 l 600 654 z "},"u":{"ha":754,"x_min":-20,"x_max":760,"o":"m 760 654 l 192 654 l 192 220 q 210 130 192 176 q 334 36 248 36 q 510 133 450 36 q 557 273 557 208 l 557 543 l 694 543 l 694 -35 q 633 -5 678 -25 l 555 29 l 555 83 q 418 9 475 25 q 336 0 384 0 q 101 132 186 0 q 62 264 62 193 l 62 654 l -20 654 l -20 736 l 760 736 l 760 654 z "},"v":{"ha":864,"x_min":-11,"x_max":842,"o":"m 842 736 l 840 654 l 771 654 l 771 525 q 714 422 759 500 l 473 -1 q 315 94 413 -1 q 208 326 208 199 q 250 448 208 391 q 269 486 269 473 q 229 510 269 510 q 172 486 199 510 q 127 437 161 477 l 40 517 q 127 564 85 555 q 182 568 149 568 q 366 372 366 570 q 360 293 366 346 q 354 214 354 240 q 392 97 354 106 q 441 149 413 97 l 648 522 l 648 654 l -11 654 l -11 736 l 842 736 z "},"w":{"ha":1061,"x_min":-9,"x_max":1071,"o":"m 1071 736 l 1069 654 l 1007 654 l 1007 237 q 918 71 1007 146 q 739 0 833 0 q 546 79 648 0 q 335 0 458 0 q 210 39 273 0 q 113 130 152 75 q 71 260 71 190 q 121 439 71 353 q 249 576 169 524 q 351 468 294 527 q 241 368 296 420 q 164 201 164 294 q 267 58 164 58 q 411 109 349 58 q 495 239 471 158 q 517 329 513 299 l 647 262 q 612 156 643 211 q 591 125 597 131 q 681 94 611 94 q 863 177 802 94 q 890 257 890 215 l 889 654 l -9 654 l -9 736 l 1071 736 z "},"x":{"ha":653,"x_min":-11,"x_max":657,"o":"m 657 654 l 576 654 l 576 564 q 575 515 576 543 q 564 478 574 506 l 355 221 q 415 142 355 181 q 467 125 441 125 q 563 170 511 125 q 611 227 591 195 l 611 11 q 528 -14 611 -13 q 383 66 425 -15 q 332 192 366 120 l 170 0 l 4 0 l 257 288 q 158 386 256 386 q 117 384 144 386 q 75 382 89 382 l 75 574 q 236 482 186 574 q 274 388 258 441 l 292 329 l 437 514 q 447 538 444 525 l 447 654 l -11 654 l -11 736 l 657 736 l 657 654 z "},"y":{"ha":770,"x_min":-37,"x_max":779,"o":"m 779 736 l 778 654 l 205 654 l 207 254 q 237 126 207 166 q 358 78 272 82 q 468 114 413 75 q 549 200 517 148 q 583 311 583 257 l 582 567 l 724 518 l 724 -176 q 607 -383 724 -303 q 354 -457 499 -457 q 5 -323 109 -457 q -37 -231 -37 -269 q 58 -88 -37 -146 q 231 -37 141 -37 l 317 -153 q 108 -202 200 -161 q 47 -272 47 -229 q 140 -381 55 -334 q 272 -410 191 -410 q 551 -290 457 -410 q 596 -157 596 -233 l 596 119 q 361 47 552 47 q 117 157 200 47 q 77 279 77 211 l 77 654 l -20 654 l -20 736 l 779 736 z "},"z":{"ha":777,"x_min":-9,"x_max":791,"o":"m 791 654 l 196 654 l 196 575 l 720 575 l 354 149 q 484 90 380 122 q 583 74 533 74 q 670 91 642 74 q 718 164 703 111 q 725 125 725 142 q 653 -1 725 43 q 567 -22 617 -22 q 353 33 454 -22 l 289 68 q 134 -3 239 -4 q 63 18 96 -2 q 25 75 25 40 q 92 167 25 132 q 210 195 146 195 q 249 191 229 195 l 504 498 q 56 431 263 498 l 111 564 l 111 654 l -9 654 l -9 737 l 791 737 l 791 654 z "},"{":{"ha":428,"x_min":24,"x_max":379,"o":"m 125 616 l 125 872 q 236 1051 125 1027 q 379 1063 288 1063 l 379 1038 q 264 943 300 1021 q 248 872 248 909 l 245 656 q 222 534 230 553 q 134 457 199 474 l 134 453 q 245 277 244 427 l 248 35 q 290 -67 257 -24 q 379 -127 326 -117 l 379 -150 q 258 -144 291 -150 q 153 -81 184 -130 q 127 40 128 -41 l 125 296 q 24 456 123 426 q 119 547 106 479 q 125 616 125 574 z "},"|":{"ha":243,"x_min":81,"x_max":163,"o":"m 163 -180 l 81 -131 l 81 1109 l 163 1109 l 163 -180 z "},"}":{"ha":414,"x_min":5,"x_max":359,"o":"m 359 441 q 260 282 261 410 l 257 26 q 149 -152 256 -130 q 5 -163 98 -163 l 5 -142 q 96 -80 58 -130 q 138 22 129 -35 l 139 262 q 166 376 145 304 q 252 439 190 424 l 252 443 q 164 519 187 460 q 148 585 154 545 l 139 642 l 138 859 q 100 966 137 919 q 5 1023 64 1014 l 5 1048 q 127 1042 92 1048 q 233 980 203 1027 q 260 859 260 939 l 260 604 q 274 509 260 541 q 359 441 295 461 z "},"~":{"ha":639,"x_min":-8,"x_max":653,"o":"m 614 406 q 562 334 614 381 q 434 258 500 277 q 370 249 401 249 q 276 281 338 249 q 186 313 215 313 q 61 278 122 313 q 39 294 39 278 q 56 336 39 326 q 220 422 117 374 q 253 428 236 428 q 335 390 276 428 q 418 351 394 351 q 572 416 476 351 q 614 406 614 416 m 653 736 l 653 654 l -8 654 l -8 736 l 653 736 z "},"¡":{"ha":306,"x_min":43,"x_max":269,"o":"m 269 993 q 183 897 236 954 q 155 872 161 872 l 43 989 q 147 1108 64 1028 q 269 993 198 1067 m 248 31 l 66 -1 q 75 132 70 41 l 85 309 q 106 787 102 592 l 216 854 q 236 294 223 596 l 248 31 z "},"¢":{"ha":549,"x_min":-8,"x_max":582,"o":"m 582 654 l 440 654 l 386 489 q 517 336 477 436 l 449 336 q 372 449 449 427 l 268 135 q 378 187 347 142 l 486 187 q 387 95 473 132 q 313 78 348 78 q 252 86 282 78 l 225 4 l 158 4 l 193 109 q 56 239 98 158 q 35 314 35 279 q 71 406 35 356 q 256 514 147 514 q 326 510 306 514 l 374 654 l -8 654 l -8 736 l 582 736 l 582 654 m 321 453 q 155 334 211 439 q 131 243 131 288 q 216 139 131 159 l 321 453 z "},"£":{"ha":463,"x_min":-8,"x_max":471,"o":"m 471 654 l 319 654 l 275 616 l 275 654 l -8 654 l -8 736 l 471 736 l 471 654 m 422 467 q 374 406 401 447 q 359 418 374 406 q 340 431 345 431 q 301 519 300 463 q 302 538 301 526 q 302 557 302 550 q 273 591 302 591 q 205 576 256 591 q 200 555 200 574 q 219 435 200 519 q 240 301 229 391 l 338 301 q 349 294 349 301 q 335 268 349 284 q 239 253 322 256 q 172 89 228 184 q 121 16 146 44 q 201 7 159 7 q 346 58 250 7 q 354 49 351 58 q 339 -9 340 5 l 319 -9 q 206 -11 274 -9 l 71 -14 q 17 -3 52 -14 q 18 3 18 0 q 136 180 136 48 q 129 239 136 208 q 126 253 126 250 l 65 253 q 58 258 58 253 q 61 266 59 260 l 64 272 q 115 300 81 300 q 78 469 102 349 q 77 489 77 477 q 130 547 77 506 q 182 593 165 575 q 275 616 211 616 l 319 654 l 319 611 q 383 539 383 592 q 370 490 383 517 q 361 467 361 473 q 372 456 361 456 q 411 469 386 456 l 416 469 q 422 467 422 469 z "},"¤":{"ha":509,"x_min":29,"x_max":485,"o":"m 485 350 q 453 236 485 290 q 464 224 458 231 q 471 196 471 213 q 449 154 471 168 q 422 146 437 146 q 385 163 399 146 q 378 158 383 161 q 257 123 321 123 q 132 161 189 123 q 123 154 129 159 q 98 147 110 147 q 56 174 71 147 q 47 201 47 187 q 61 236 47 220 q 29 349 29 290 q 77 488 29 425 q 64 501 68 492 q 56 528 56 514 q 78 570 56 555 q 106 578 91 578 q 147 555 132 578 q 150 549 148 553 q 258 576 199 576 q 371 546 319 576 q 412 571 385 571 q 456 545 439 571 q 463 519 463 531 q 443 481 463 495 q 449 471 446 475 q 485 350 485 412 m 422 351 q 337 496 422 451 q 256 515 300 515 q 113 430 159 515 q 92 350 92 391 q 179 205 92 252 q 258 184 216 184 q 403 272 356 184 q 422 351 422 309 z "},"¥":{"ha":567,"x_min":-8,"x_max":582,"o":"m 582 654 l 175 654 l 175 386 q 193 313 175 336 q 260 286 211 291 q 368 357 328 286 q 386 416 386 389 l 385 561 l 465 533 q 467 240 467 444 l 545 240 q 484 203 536 232 l 465 203 l 465 161 l 545 161 q 484 121 537 153 l 464 121 q 351 5 463 52 q 257 -16 303 -16 q 60 56 119 -16 q 36 107 36 85 q 85 89 60 89 q 133 29 91 51 q 211 11 168 11 q 319 37 272 11 q 389 121 375 66 l 163 121 l 222 161 l 393 161 l 393 203 l 163 203 l 222 240 l 393 240 l 393 311 q 261 269 368 269 q 152 302 198 269 q 100 399 100 338 l 100 654 l -8 654 l -8 736 l 582 736 l 582 654 z "},"¦":{"ha":243,"x_min":79,"x_max":163,"o":"m 163 550 l 81 550 l 81 1013 l 163 1013 l 163 550 m 161 -5 l 79 45 l 79 479 l 161 479 l 161 -5 z "},"§":{"ha":484,"x_min":-8,"x_max":490,"o":"m 490 654 l 300 654 l 216 583 l 216 654 l -8 654 l -8 736 l 490 736 l 490 654 m 454 121 q 218 -1 440 -1 q 114 9 175 -1 q 29 47 29 23 q 37 60 29 54 q 199 32 93 32 q 343 81 342 32 q 202 170 344 125 q 117 199 130 193 q 42 246 82 214 q 28 292 28 263 q 210 359 52 355 l 79 404 q 28 497 28 431 q 216 583 56 572 l 300 654 l 300 585 q 399 529 384 581 q 390 505 399 508 q 353 519 386 505 q 239 546 291 546 q 149 517 185 546 q 135 492 135 503 q 157 465 135 479 q 171 456 165 460 q 301 420 189 450 q 392 389 359 404 q 454 325 454 359 q 328 225 444 245 q 404 184 395 191 q 454 121 452 153 m 343 288 q 295 326 343 313 q 227 336 259 336 q 149 310 166 336 q 195 269 149 286 q 290 235 204 265 q 343 288 343 250 z "},"¨":{"ha":440,"x_min":31,"x_max":425,"o":"m 425 914 q 392 875 425 903 q 347 847 359 847 q 313 876 332 847 q 300 895 310 880 q 298 890 300 890 q 283 908 294 890 q 267 942 267 935 q 300 983 267 955 q 347 1011 334 1011 q 387 971 361 1011 q 425 914 425 933 m 186 914 q 156 871 186 900 q 113 842 127 842 q 62 886 101 842 q 36 916 56 894 q 31 932 31 922 q 60 979 31 946 q 103 1011 89 1011 q 143 971 105 1010 q 179 934 166 948 q 186 914 186 926 z "},"©":{"ha":615,"x_min":24,"x_max":600,"o":"m 600 715 q 504 501 600 589 q 311 427 422 427 q 98 521 182 427 q 24 715 24 605 q 118 928 24 842 q 311 1003 201 1003 q 525 908 439 1003 q 600 715 600 825 m 559 720 q 498 886 559 814 q 378 965 443 951 l 329 975 q 298 977 322 977 q 134 917 204 977 q 41 718 41 839 q 103 553 41 625 q 301 460 182 460 q 467 521 393 460 q 559 720 559 598 m 510 758 l 453 758 q 353 860 453 860 q 193 763 249 860 q 170 681 170 722 q 281 587 170 587 q 393 632 360 587 l 485 632 q 398 553 474 585 q 336 539 366 539 q 223 571 280 539 q 134 648 169 601 q 98 742 98 696 q 129 819 98 777 q 189 880 155 857 q 288 911 231 911 q 329 907 304 911 l 329 975 l 378 965 l 378 889 q 510 758 480 836 z "},"ª":{"ha":457,"x_min":33,"x_max":429,"o":"m 429 610 q 368 635 411 618 q 357 640 366 636 q 351 659 357 653 q 267 622 325 644 q 196 614 237 614 q 57 671 106 614 q 33 732 33 699 q 142 857 33 806 q 252 879 191 879 q 357 850 321 879 l 357 892 q 265 935 324 936 q 130 907 197 932 q 78 889 89 892 l 78 922 q 121 957 92 938 q 170 979 155 979 q 161 981 163 979 q 201 991 166 985 q 278 1002 259 1002 q 422 908 406 1002 q 429 786 429 865 l 429 610 m 357 768 q 308 803 357 788 q 241 815 268 815 q 88 747 145 815 q 65 701 65 720 q 140 667 75 667 q 298 711 229 667 q 357 768 357 749 z "},"«":{"ha":533,"x_min":53,"x_max":497,"o":"m 253 111 l 53 262 l 53 364 l 253 515 l 239 406 l 123 314 l 239 222 l 253 111 m 497 111 l 297 262 l 297 364 l 497 515 l 483 406 l 368 314 l 483 222 l 497 111 z "},"¬":{"ha":750,"x_min":17,"x_max":726,"o":"m 726 204 l 656 232 l 656 334 l 17 334 l 71 406 l 726 406 l 726 204 z "},"®":{"ha":615,"x_min":24,"x_max":600,"o":"m 600 715 q 504 501 600 589 q 311 427 422 427 q 98 521 182 427 q 24 715 24 605 q 118 928 24 842 q 311 1003 201 1003 q 525 908 439 1003 q 600 715 600 825 m 559 720 q 498 886 559 814 q 378 965 450 944 l 378 895 q 471 846 436 890 q 489 796 489 823 q 407 703 489 749 l 345 774 q 399 795 374 777 q 428 842 428 815 q 410 867 428 857 q 378 876 395 876 q 309 846 347 876 q 258 788 278 821 q 235 708 235 749 l 235 528 l 153 572 l 153 879 l 237 879 l 237 848 q 279 873 241 857 q 326 890 311 886 l 326 979 q 134 917 209 979 q 41 718 41 840 q 103 553 41 625 q 301 460 182 460 q 467 521 393 460 q 559 720 559 598 z "},"°":{"ha":256,"x_min":32,"x_max":237,"o":"m 237 905 q 208 832 237 861 q 135 803 179 803 q 61 832 91 803 q 32 905 32 861 q 61 979 32 949 q 135 1008 91 1008 q 209 979 180 1008 q 237 905 237 950 m 211 905 q 190 960 211 939 q 135 982 168 982 q 80 960 102 982 q 58 905 58 938 q 81 851 58 873 q 135 829 103 829 q 189 851 167 829 q 211 905 211 873 z "},"±":{"ha":505,"x_min":-8,"x_max":526,"o":"m 526 654 l -8 654 l -8 736 l 526 736 l 526 654 m 481 422 l 412 353 l 296 353 l 296 235 l 228 171 l 228 353 l 45 353 l 109 422 l 228 422 l 228 538 l 296 607 l 296 422 l 481 422 m 485 127 l 441 56 l 14 56 l 57 127 l 485 127 z "},"²":{"ha":450,"x_min":37,"x_max":408,"o":"m 171 1003 q 201 1004 178 1004 q 380 861 380 1004 q 212 665 380 764 q 408 699 355 665 l 370 614 l 37 614 l 56 656 q 264 741 186 664 q 302 832 302 780 q 246 924 302 893 q 135 950 201 950 q 46 939 87 950 q 141 994 64 971 l 171 1003 z "},"³":{"ha":380,"x_min":40,"x_max":343,"o":"m 168 999 q 207 1003 189 1003 q 322 920 322 1003 q 249 827 322 863 q 343 728 343 790 q 254 627 343 660 q 149 610 209 610 q 40 642 77 610 l 115 701 q 216 657 140 657 q 268 697 268 657 q 171 776 268 758 q 94 783 132 783 q 64 782 71 783 l 139 833 q 172 836 149 836 q 215 833 196 836 q 239 886 239 858 q 219 930 239 911 q 175 953 200 949 q 143 954 165 954 q 56 942 102 954 q 139 991 88 978 q 168 999 159 996 z "},"´":{"ha":264,"x_min":32,"x_max":283,"o":"m 283 1084 q 244 989 272 1050 q 170 950 231 967 q 132 924 146 944 q 69 807 123 911 q 50 804 61 804 q 35 807 37 804 q 32 817 32 814 q 36 836 34 826 q 69 926 51 865 q 100 1014 87 986 q 257 1100 122 1059 l 283 1100 l 283 1084 z "},"¶":{"ha":625,"x_min":9,"x_max":583,"o":"m 583 -189 l 514 -189 l 514 872 l 583 872 l 583 -189 m 444 -189 l 375 -189 l 375 379 q 258 380 290 379 q 44 512 117 387 q 9 648 9 572 q 146 843 9 777 q 264 872 205 872 l 444 872 l 444 -189 z "},"¸":{"ha":199,"x_min":-3,"x_max":147,"o":"m 147 -18 q 65 -106 147 -82 q -3 -96 18 -106 q 68 -47 68 -73 q 61 -31 68 -37 q 37 -20 57 -24 q 26 -18 30 -18 q 41 11 26 5 q 56 17 45 13 l 56 57 l 123 57 l 123 25 q 147 -18 146 -3 m 56 17 z "},"¹":{"ha":179,"x_min":47,"x_max":123,"o":"m 123 574 l 54 621 l 54 940 q 47 978 54 952 l 47 991 l 123 1007 l 123 574 z "},"º":{"ha":514,"x_min":35,"x_max":478,"o":"m 478 799 q 422 665 478 716 q 282 614 366 614 q 167 650 228 614 q 75 730 111 683 q 35 839 35 782 q 71 917 35 873 q 227 1011 141 1002 q 372 966 294 1011 q 410 942 397 951 q 478 799 478 909 m 407 863 q 380 933 407 905 q 311 961 353 961 q 218 930 268 961 q 143 863 173 902 q 106 750 106 815 q 138 690 106 717 q 203 665 169 665 q 296 697 245 665 q 372 764 342 726 q 407 863 407 809 z "},"»":{"ha":533,"x_min":50,"x_max":486,"o":"m 250 261 l 50 110 l 64 220 l 179 311 l 64 403 l 50 514 l 250 363 l 250 261 m 486 261 l 286 110 l 300 220 l 415 311 l 300 403 l 286 514 l 486 363 l 486 261 z "},"¼":{"ha":541,"x_min":-8,"x_max":554,"o":"m 364 119 q 363 237 364 179 q 355 241 361 241 q 241 119 270 161 l 364 119 m 424 326 l 424 119 l 482 119 l 456 86 l 422 86 l 422 -3 l 363 -3 l 363 87 l 183 87 q 224 129 194 98 l 283 190 q 424 326 340 248 m 119 286 l 69 319 l 69 550 q 65 576 69 560 l 65 586 l 119 597 l 119 286 m 406 654 l 71 1 l 26 1 l 361 654 l -8 654 l -8 736 l 554 736 l 554 654 l 406 654 z "},"½":{"ha":541,"x_min":-8,"x_max":554,"o":"m 119 286 l 69 319 l 69 550 q 65 576 69 560 l 65 586 l 119 597 l 119 286 m 406 654 l 71 1 l 26 1 l 361 654 l -8 654 l -8 736 l 554 736 l 554 654 l 406 654 m 334 302 q 503 189 503 302 q 367 32 503 113 q 524 60 481 32 l 492 -8 l 227 -8 l 241 24 q 408 94 347 32 q 439 167 439 126 q 375 249 439 224 q 306 261 344 261 q 233 252 279 261 q 334 302 253 288 z "},"¾":{"ha":579,"x_min":-8,"x_max":582,"o":"m 119 597 q 147 600 130 600 q 231 541 231 600 q 178 473 231 500 q 244 403 244 448 q 195 334 244 357 q 106 317 157 317 q 28 340 53 317 l 81 383 q 154 351 99 351 q 192 380 192 351 q 45 441 192 441 l 98 478 q 122 481 113 481 q 153 478 139 481 q 171 517 171 497 q 155 548 171 533 q 123 564 140 564 q 37 557 68 564 q 96 591 62 583 q 119 597 112 594 m 433 119 q 432 237 433 160 q 425 241 432 241 q 311 119 334 158 l 433 119 m 493 326 l 493 119 l 551 119 l 525 86 l 492 86 l 492 -3 l 432 -3 l 432 87 l 253 87 q 419 256 318 155 q 493 326 471 307 m 475 654 l 140 1 l 96 1 l 431 654 l -8 654 l -8 736 l 582 736 l 582 654 l 475 654 z "},"¿":{"ha":562,"x_min":14,"x_max":553,"o":"m 428 981 q 344 882 428 963 q 309 850 311 851 q 238 911 300 850 q 176 981 176 972 q 300 1112 172 981 q 399 1021 313 1112 q 428 981 428 990 m 553 170 q 364 16 492 50 q 267 1 311 1 q 59 108 141 1 q 14 261 14 167 q 70 433 14 363 q 140 509 94 463 q 248 705 248 615 q 239 749 248 731 l 424 843 q 439 772 439 801 q 391 629 439 697 q 294 526 361 586 q 191 427 216 456 q 142 310 142 368 q 385 129 142 132 q 517 152 476 127 q 553 170 537 163 z "},"À":{"ha":660,"x_min":-17,"x_max":663,"o":"m 663 654 l 211 654 l 211 546 q 216 543 214 546 q 221 541 219 541 q 215 541 216 541 q 316 563 215 545 q 390 570 353 570 q 586 484 543 570 q 615 254 615 427 l 615 -7 q 507 37 601 -1 q 498 65 507 59 q 439 33 463 44 q 269 -1 366 -1 q 63 83 136 -1 q 28 174 28 123 q 83 286 28 230 q 351 393 191 393 q 507 349 448 393 l 507 411 q 449 462 477 449 q 372 473 421 475 q 172 433 263 471 q 93 403 132 416 l 93 453 q 119 475 102 460 q 122 479 121 479 l 122 654 l -17 654 l -17 736 l 663 736 l 663 654 m 507 225 q 436 279 507 255 q 338 298 377 298 q 109 195 195 298 q 74 127 74 154 q 186 78 88 78 q 416 141 312 78 q 507 225 507 196 m 382 807 q 366 804 379 804 q 347 807 355 804 l 303 897 q 230 955 276 940 q 172 989 183 970 q 133 1084 162 1020 l 133 1100 l 159 1100 q 244 1069 212 1084 q 316 1015 298 1046 q 347 928 326 998 q 380 836 367 862 q 382 807 382 824 z "},"Á":{"ha":660,"x_min":-17,"x_max":663,"o":"m 663 654 l 211 654 l 211 546 q 216 543 214 546 q 221 541 219 541 q 215 541 216 541 q 316 563 215 545 q 390 570 353 570 q 586 484 543 570 q 615 254 615 427 l 615 -7 q 507 37 601 -1 q 498 65 507 59 q 439 33 463 44 q 269 -1 366 -1 q 63 83 136 -1 q 28 174 28 123 q 83 286 28 230 q 351 393 191 393 q 507 349 448 393 l 507 411 q 449 462 477 449 q 372 473 421 475 q 172 433 263 471 q 93 403 132 416 l 93 453 q 119 475 102 460 q 122 479 121 479 l 122 654 l -17 654 l -17 736 l 663 736 l 663 654 m 507 225 q 436 279 507 255 q 338 298 377 298 q 109 195 195 298 q 74 127 74 154 q 186 78 88 78 q 416 141 312 78 q 507 225 507 196 m 506 1084 q 467 989 494 1050 q 392 950 454 967 q 355 924 368 944 q 292 807 346 911 q 273 804 283 804 q 257 807 260 804 q 254 817 254 814 q 258 836 256 826 q 291 926 273 865 q 323 1014 309 986 q 479 1100 345 1059 l 506 1100 l 506 1084 z "},"Â":{"ha":660,"x_min":-17,"x_max":663,"o":"m 663 654 l 211 654 l 211 546 q 216 543 214 546 q 221 541 219 541 q 215 541 216 541 q 316 563 215 545 q 390 570 353 570 q 586 484 543 570 q 615 254 615 427 l 615 -7 q 507 37 601 -1 q 498 65 507 59 q 439 33 463 44 q 269 -1 366 -1 q 63 83 136 -1 q 28 174 28 123 q 83 286 28 230 q 351 393 191 393 q 507 349 448 393 l 507 411 q 449 462 477 449 q 372 473 421 475 q 172 433 263 471 q 93 403 132 416 l 93 453 q 119 475 102 460 q 122 479 121 479 l 122 654 l -17 654 l -17 736 l 663 736 l 663 654 m 507 225 q 436 279 507 255 q 338 298 377 298 q 109 195 195 298 q 74 127 74 154 q 186 78 88 78 q 416 141 312 78 q 507 225 507 196 m 529 817 l 419 831 l 328 946 l 236 831 l 125 817 l 276 1017 l 378 1017 l 529 817 z "},"Ã":{"ha":660,"x_min":-17,"x_max":663,"o":"m 663 654 l 211 654 l 211 546 q 216 543 214 546 q 221 541 219 541 q 215 541 216 541 q 316 563 215 545 q 390 570 353 570 q 586 484 543 570 q 615 254 615 427 l 615 -7 q 507 37 601 -1 q 498 65 507 59 q 439 33 463 44 q 269 -1 366 -1 q 63 83 136 -1 q 28 174 28 123 q 83 286 28 230 q 351 393 191 393 q 507 349 448 393 l 507 411 q 449 462 477 449 q 372 473 421 475 q 172 433 263 471 q 93 403 132 416 l 93 453 q 119 475 102 460 q 122 479 121 479 l 122 654 l -17 654 l -17 736 l 663 736 l 663 654 m 507 225 q 436 279 507 255 q 338 298 377 298 q 109 195 195 298 q 74 127 74 154 q 186 78 88 78 q 416 141 312 78 q 507 225 507 196 m 550 947 q 511 892 550 928 q 455 852 479 863 q 365 829 406 829 q 295 853 340 829 q 228 878 250 878 q 134 851 179 878 q 118 864 118 851 q 130 895 118 887 q 254 960 174 921 q 279 964 269 964 q 340 935 298 964 q 403 905 383 905 q 518 956 447 905 q 550 947 550 956 z "},"Ä":{"ha":660,"x_min":-17,"x_max":663,"o":"m 663 654 l 211 654 l 211 546 q 216 543 214 546 q 221 541 219 541 q 215 541 216 541 q 316 563 215 545 q 390 570 353 570 q 586 484 543 570 q 615 254 615 427 l 615 -7 q 507 37 601 -1 q 498 65 507 59 q 439 33 463 44 q 269 -1 366 -1 q 63 83 136 -1 q 28 174 28 123 q 83 286 28 230 q 351 393 191 393 q 507 349 448 393 l 507 411 q 449 462 477 449 q 372 473 421 475 q 172 433 263 471 q 93 403 132 416 l 93 453 q 119 475 102 460 q 122 479 121 479 l 122 654 l -17 654 l -17 736 l 663 736 l 663 654 m 507 225 q 436 279 507 255 q 338 298 377 298 q 109 195 195 298 q 74 127 74 154 q 186 78 88 78 q 416 141 312 78 q 507 225 507 196 m 522 914 q 489 875 522 903 q 444 847 456 847 q 410 876 429 847 q 397 895 407 880 q 395 890 397 890 q 380 908 391 890 q 363 942 363 935 q 397 983 363 955 q 444 1011 431 1011 q 484 971 458 1011 q 522 914 522 933 m 283 914 q 253 871 283 900 q 210 842 224 842 q 159 886 198 842 q 133 916 153 894 q 127 932 127 922 q 157 979 127 946 q 200 1011 186 1011 q 240 971 202 1010 q 276 934 263 948 q 283 914 283 926 z "},"Å":{"ha":660,"x_min":-17,"x_max":663,"o":"m 663 654 l 211 654 l 211 546 q 216 543 214 546 q 221 541 219 541 q 215 541 216 541 q 316 563 215 545 q 390 570 353 570 q 586 484 543 570 q 615 254 615 427 l 615 -7 q 507 37 601 -1 q 498 65 507 59 q 439 33 463 44 q 269 -1 366 -1 q 63 83 136 -1 q 28 174 28 123 q 83 286 28 230 q 351 393 191 393 q 507 349 448 393 l 507 411 q 449 462 477 449 q 372 473 421 475 q 172 433 263 471 q 93 403 132 416 l 93 453 q 119 475 102 460 q 122 479 121 479 l 122 654 l -17 654 l -17 736 l 663 736 l 663 654 m 507 225 q 436 279 507 255 q 338 298 377 298 q 109 195 195 298 q 74 127 74 154 q 186 78 88 78 q 416 141 312 78 q 507 225 507 196 m 465 964 q 429 872 465 909 q 338 836 393 836 q 245 872 281 836 q 210 964 210 907 q 245 1056 210 1020 q 338 1092 281 1092 q 449 1029 414 1092 q 465 964 465 1001 m 410 964 q 389 1015 410 994 q 338 1036 368 1036 q 286 1015 307 1036 q 265 964 265 994 q 286 912 265 933 q 338 892 307 892 q 389 913 368 892 q 410 964 410 934 z "},"Æ":{"ha":1157,"x_min":-17,"x_max":1186,"o":"m 1186 654 l 1002 654 l 1002 521 q 1047 503 1031 515 l 1047 422 q 879 450 968 450 q 757 429 814 450 q 677 350 679 401 q 832 296 676 296 q 876 298 836 296 l 917 300 l 917 237 q 745 225 846 237 q 639 139 639 213 q 695 70 639 95 q 790 50 739 50 q 1057 146 944 50 q 1147 245 1107 189 l 1147 74 q 871 0 1027 0 q 615 56 739 0 l 615 -7 q 507 37 601 -1 q 498 65 507 59 q 439 33 463 44 q 269 -1 366 -1 q 63 83 136 -1 q 28 174 28 123 q 83 286 28 230 q 351 393 191 393 q 507 349 448 393 l 507 411 q 449 462 477 449 q 372 473 421 475 q 172 433 263 471 q 93 403 132 416 l 93 453 q 155 503 114 473 q 221 541 205 541 q 215 541 216 541 q 316 563 215 545 q 390 570 353 570 q 591 472 550 570 q 897 545 677 545 l 897 654 l -17 654 l -17 736 l 1186 736 l 1186 654 m 507 225 q 436 279 507 255 q 338 298 377 298 q 109 195 195 298 q 74 127 74 154 q 186 78 88 78 q 464 174 352 78 q 507 225 507 212 z "},"Ç":{"ha":708,"x_min":-11,"x_max":718,"o":"m 718 654 l 576 654 l 576 465 q 631 412 621 424 q 665 345 648 390 l 575 345 q 533 460 575 418 q 418 501 492 501 q 273 458 340 501 q 170 349 209 418 q 132 221 132 283 q 184 111 132 149 q 306 77 231 77 q 481 146 431 77 l 625 146 q 506 30 611 82 q 415 1 460 7 l 415 -17 q 439 -60 439 -47 q 357 -147 440 -125 q 289 -138 310 -147 q 359 -89 359 -114 q 353 -72 359 -81 q 328 -61 349 -65 q 318 -60 321 -60 q 335 -31 318 -37 q 347 -25 343 -28 l 347 4 q 174 77 256 20 q 49 216 91 136 q 22 315 22 267 q 71 438 22 370 q 317 582 172 582 q 468 542 412 582 l 468 654 l -11 654 l -11 736 l 718 736 l 718 654 m 347 -25 z "},"È":{"ha":705,"x_min":-9,"x_max":714,"o":"m 714 654 l 529 654 l 529 521 q 575 503 561 513 l 575 422 q 407 450 494 450 q 285 429 344 450 q 205 350 206 401 q 359 296 204 296 q 404 298 363 296 l 444 300 l 444 237 q 329 233 352 235 q 167 139 167 218 q 223 70 167 95 q 318 50 267 50 q 675 245 538 50 l 675 74 q 399 0 558 0 q 98 81 224 0 q 36 171 36 120 q 79 257 36 220 q 167 309 106 279 l 122 334 q 82 396 82 357 q 209 517 82 480 q 425 545 305 545 l 425 654 l -9 654 l -9 736 l 714 736 l 714 654 m 437 807 q 422 804 435 804 q 403 807 411 804 l 359 897 q 285 955 332 940 q 228 989 239 970 q 189 1084 218 1020 l 189 1100 l 215 1100 q 300 1069 267 1084 q 372 1015 353 1046 q 403 928 382 998 q 436 836 422 862 q 437 807 437 824 z "},"É":{"ha":705,"x_min":-9,"x_max":714,"o":"m 714 654 l 529 654 l 529 521 q 575 503 561 513 l 575 422 q 407 450 494 450 q 285 429 344 450 q 205 350 206 401 q 359 296 204 296 q 404 298 363 296 l 444 300 l 444 237 q 329 233 352 235 q 167 139 167 218 q 223 70 167 95 q 318 50 267 50 q 675 245 538 50 l 675 74 q 399 0 558 0 q 98 81 224 0 q 36 171 36 120 q 79 257 36 220 q 167 309 106 279 l 122 334 q 82 396 82 357 q 209 517 82 480 q 425 545 305 545 l 425 654 l -9 654 l -9 736 l 714 736 l 714 654 m 547 1084 q 508 989 536 1050 q 433 950 495 967 q 396 924 410 944 q 333 807 387 911 q 314 804 325 804 q 298 807 301 804 q 296 817 296 814 q 300 836 298 826 q 333 926 315 865 q 364 1014 351 986 q 521 1100 386 1059 l 547 1100 l 547 1084 z "},"Ê":{"ha":705,"x_min":-9,"x_max":714,"o":"m 714 654 l 529 654 l 529 521 q 575 503 561 513 l 575 422 q 407 450 494 450 q 285 429 344 450 q 205 350 206 401 q 359 296 204 296 q 404 298 363 296 l 444 300 l 444 237 q 329 233 352 235 q 167 139 167 218 q 223 70 167 95 q 318 50 267 50 q 675 245 538 50 l 675 74 q 399 0 558 0 q 98 81 224 0 q 36 171 36 120 q 79 257 36 220 q 167 309 106 279 l 122 334 q 82 396 82 357 q 209 517 82 480 q 425 545 305 545 l 425 654 l -9 654 l -9 736 l 714 736 l 714 654 m 557 817 l 447 831 l 355 946 l 264 831 l 153 817 l 304 1017 l 406 1017 l 557 817 z "},"Ë":{"ha":705,"x_min":-9,"x_max":714,"o":"m 714 654 l 529 654 l 529 521 q 575 503 561 513 l 575 422 q 407 450 494 450 q 285 429 344 450 q 205 350 206 401 q 359 296 204 296 q 404 298 363 296 l 444 300 l 444 237 q 329 233 352 235 q 167 139 167 218 q 223 70 167 95 q 318 50 267 50 q 675 245 538 50 l 675 74 q 399 0 558 0 q 98 81 224 0 q 36 171 36 120 q 79 257 36 220 q 167 309 106 279 l 122 334 q 82 396 82 357 q 209 517 82 480 q 425 545 305 545 l 425 654 l -9 654 l -9 736 l 714 736 l 714 654 m 553 914 q 520 875 553 903 q 475 847 487 847 q 441 876 460 847 q 427 895 437 880 q 425 890 427 890 q 411 908 422 890 q 394 942 394 935 q 428 983 394 955 q 475 1011 461 1011 q 515 971 488 1011 q 553 914 553 933 m 313 914 q 284 871 313 900 q 240 842 254 842 q 190 886 229 842 q 163 916 183 894 q 158 932 158 922 q 187 979 158 946 q 231 1011 216 1011 q 271 971 233 1010 q 307 934 294 948 q 313 914 313 926 z "},"Ì":{"ha":264,"x_min":-7,"x_max":269,"o":"m 257 807 q 241 804 254 804 q 222 807 231 804 q 178 898 200 852 q 105 955 155 935 q 47 989 56 975 q 8 1084 37 1021 l 8 1100 l 35 1100 q 119 1069 87 1084 q 191 1015 173 1046 q 222 928 201 998 q 256 836 242 862 q 257 807 257 824 m 269 654 l -7 654 l -7 736 l 269 736 l 269 654 m 192 -16 l 78 47 l 78 571 l 192 571 l 192 -16 z "},"Í":{"ha":264,"x_min":-7,"x_max":269,"o":"m 257 1084 q 209 976 245 1043 q 143 950 199 966 q 106 924 121 943 q 79 876 98 912 l 43 807 q 24 804 35 804 q 8 807 11 804 q 5 817 5 814 q 9 836 7 826 q 42 925 24 865 q 75 1015 60 986 q 231 1100 98 1059 l 257 1100 l 257 1084 m 269 654 l -7 654 l -7 736 l 269 736 l 269 654 m 192 -16 l 78 47 l 78 571 l 192 571 l 192 -16 z "},"Î":{"ha":264,"x_min":-69,"x_max":335,"o":"m 335 817 l 225 831 l 134 946 l 41 831 l -69 817 l 82 1017 l 183 1017 l 335 817 m 269 654 l -7 654 l -7 736 l 269 736 l 269 654 m 192 -16 l 78 47 l 78 571 l 192 571 l 192 -16 z "},"Ï":{"ha":264,"x_min":-66,"x_max":328,"o":"m 328 914 q 276 862 328 900 q 250 847 256 847 q 218 873 237 847 q 203 895 212 882 q 201 890 203 890 q 186 908 197 890 q 170 942 170 935 q 203 983 170 954 q 250 1011 237 1011 q 290 971 264 1011 q 328 914 328 934 m 89 914 q 59 871 89 901 q 16 842 29 842 q -35 886 4 842 q -61 916 -41 894 q -66 932 -66 922 q -22 995 -66 950 q 5 1011 -5 1011 q 31 991 18 1011 q 82 934 35 985 q 89 914 89 926 m 269 654 l -7 654 l -7 736 l 269 736 l 269 654 m 192 -16 l 78 47 l 78 571 l 192 571 l 192 -16 z "},"Ð":{"ha":770,"x_min":-14,"x_max":781,"o":"m 781 654 l 692 654 l 692 600 l 777 600 l 733 528 l 692 528 l 690 -8 l 567 45 l 567 142 q 351 0 457 0 q 205 56 284 0 q 92 169 137 104 q 40 317 39 245 q 113 469 41 382 q 307 567 193 567 q 453 505 380 567 q 567 387 475 487 l 567 528 l 458 528 l 501 600 l 567 600 l 567 654 l -14 654 l -14 736 l 567 736 q 543 956 567 876 q 386 1236 508 1074 q 383 1247 383 1238 q 387 1258 383 1255 l 517 1258 q 692 736 692 1065 l 781 736 l 781 654 m 534 346 q 477 437 534 399 q 370 471 425 471 q 287 444 345 471 q 135 237 135 372 q 168 130 135 176 q 264 79 205 79 q 480 226 369 79 q 534 346 534 297 m 567 600 z "},"Ñ":{"ha":711,"x_min":-7,"x_max":722,"o":"m 722 654 l -7 654 l -7 736 l 722 736 l 722 654 m 576 357 q 422 519 576 519 q 232 400 309 519 q 164 175 164 294 l 164 -22 l 53 36 l 53 546 l 170 546 l 170 465 l 230 511 q 399 571 310 571 q 599 477 519 571 q 673 267 673 389 q 543 -29 673 113 l 412 53 q 516 164 473 113 q 576 357 576 236 m 567 947 q 528 892 567 928 q 472 852 496 863 q 382 829 423 829 q 312 853 357 829 q 245 878 267 878 q 151 851 196 878 q 135 864 135 851 q 147 895 135 887 q 271 960 191 921 q 296 964 286 964 q 357 935 315 964 q 420 905 400 905 q 535 956 464 905 q 567 947 567 956 z "},"Ò":{"ha":711,"x_min":-12,"x_max":724,"o":"m 724 654 l 571 654 l 571 468 q 625 408 571 462 q 667 264 667 357 q 529 34 667 109 q 387 -1 464 -1 q 158 97 276 -1 q 35 321 35 200 q 75 436 35 376 q 161 525 111 490 q 309 567 222 567 q 449 542 356 567 q 453 547 453 542 l 453 654 l -12 654 l -12 736 l 724 736 l 724 654 m 567 354 q 483 482 567 450 q 429 494 452 494 q 248 419 345 494 q 135 195 135 331 q 208 90 135 131 q 275 72 241 72 q 460 153 359 72 q 567 354 567 240 m 452 807 q 436 804 449 804 q 417 807 425 804 l 373 897 q 299 955 346 940 q 242 989 253 970 q 203 1084 232 1020 l 203 1100 l 229 1100 q 314 1069 281 1084 q 386 1015 368 1046 q 417 928 396 998 q 450 836 437 862 q 452 807 452 824 z "},"Ó":{"ha":711,"x_min":-12,"x_max":724,"o":"m 724 654 l 571 654 l 571 468 q 625 408 571 462 q 667 264 667 357 q 529 34 667 109 q 387 -1 464 -1 q 158 97 276 -1 q 35 321 35 200 q 75 436 35 376 q 161 525 111 490 q 309 567 222 567 q 449 542 356 567 q 453 547 453 542 l 453 654 l -12 654 l -12 736 l 724 736 l 724 654 m 567 354 q 483 482 567 450 q 429 494 452 494 q 248 419 345 494 q 135 195 135 331 q 208 90 135 131 q 275 72 241 72 q 460 153 359 72 q 567 354 567 240 m 503 1084 q 464 989 492 1050 q 389 950 451 967 q 352 924 366 944 q 289 807 343 911 q 270 804 281 804 q 254 807 257 804 q 252 817 252 814 q 256 836 254 826 q 289 926 271 865 q 320 1014 307 986 q 477 1100 342 1059 l 503 1100 l 503 1084 z "},"Ô":{"ha":711,"x_min":-12,"x_max":724,"o":"m 724 654 l 571 654 l 571 468 q 625 408 571 462 q 667 264 667 357 q 529 34 667 109 q 387 -1 464 -1 q 158 97 276 -1 q 35 321 35 200 q 75 436 35 376 q 161 525 111 490 q 309 567 222 567 q 449 542 356 567 q 453 547 453 542 l 453 654 l -12 654 l -12 736 l 724 736 l 724 654 m 567 354 q 483 482 567 450 q 429 494 452 494 q 248 419 345 494 q 135 195 135 331 q 208 90 135 131 q 275 72 241 72 q 460 153 359 72 q 567 354 567 240 m 557 817 l 447 831 l 355 946 l 264 831 l 153 817 l 304 1017 l 406 1017 l 557 817 z "},"Õ":{"ha":711,"x_min":-12,"x_max":724,"o":"m 724 654 l 571 654 l 571 468 q 625 408 571 462 q 667 264 667 357 q 529 34 667 109 q 387 -1 464 -1 q 158 97 276 -1 q 35 321 35 200 q 75 436 35 376 q 161 525 111 490 q 309 567 222 567 q 449 542 356 567 q 453 547 453 542 l 453 654 l -12 654 l -12 736 l 724 736 l 724 654 m 567 354 q 483 482 567 450 q 429 494 452 494 q 248 419 345 494 q 135 195 135 331 q 208 90 135 131 q 275 72 241 72 q 460 153 359 72 q 567 354 567 240 m 579 947 q 541 892 579 928 q 484 852 508 863 q 394 829 435 829 q 324 853 369 829 q 257 878 279 878 q 163 851 208 878 q 147 864 147 851 q 159 895 147 887 q 283 960 203 921 q 308 964 298 964 q 370 935 327 964 q 432 905 412 905 q 547 956 476 905 q 579 947 579 956 z "},"Ö":{"ha":711,"x_min":-12,"x_max":724,"o":"m 724 654 l 571 654 l 571 468 q 625 408 571 462 q 667 264 667 357 q 529 34 667 109 q 387 -1 464 -1 q 158 97 276 -1 q 35 321 35 200 q 75 436 35 376 q 161 525 111 490 q 309 567 222 567 q 449 542 356 567 q 453 547 453 542 l 453 654 l -12 654 l -12 736 l 724 736 l 724 654 m 567 354 q 483 482 567 450 q 429 494 452 494 q 248 419 345 494 q 135 195 135 331 q 208 90 135 131 q 275 72 241 72 q 460 153 359 72 q 567 354 567 240 m 562 914 q 529 875 562 903 q 484 847 496 847 q 450 876 469 847 q 436 895 446 880 q 434 890 436 890 q 420 908 431 890 q 403 942 403 935 q 436 983 403 955 q 484 1011 470 1011 q 524 971 497 1011 q 562 914 562 933 m 322 914 q 293 871 322 900 q 249 842 263 842 q 199 886 237 842 q 172 916 192 894 q 167 932 167 922 q 196 979 167 946 q 239 1011 225 1011 q 279 971 241 1010 q 315 934 302 948 q 322 914 322 926 z "},"×":{"ha":518,"x_min":-8,"x_max":526,"o":"m 262 335 l 359 432 l 476 433 l 319 277 l 476 119 l 359 118 l 261 218 l 161 118 l 50 122 l 203 275 l 47 432 l 161 435 l 262 335 m 526 736 l 526 654 l -8 654 l -8 736 l 526 736 z "},"Ø":{"ha":711,"x_min":-12,"x_max":724,"o":"m 724 654 l 567 654 l 498 519 q 667 264 667 435 q 529 34 667 109 q 387 -1 464 -1 q 253 35 323 -1 l 225 -21 l 158 -21 q 180 22 165 -8 l 200 64 q 47 245 87 131 q 35 321 35 283 q 75 436 35 376 q 161 525 111 490 q 309 567 222 567 q 444 543 382 567 l 500 654 l -12 654 l -12 736 l 724 736 l 724 654 m 481 484 l 272 72 q 296 71 284 71 q 488 157 401 71 q 574 348 574 243 q 481 484 574 444 m 419 494 l 212 87 l 419 494 m 419 494 q 399 495 409 495 q 211 413 295 495 q 127 227 127 330 q 212 87 127 134 l 419 494 m 481 484 z "},"Ù":{"ha":754,"x_min":-20,"x_max":760,"o":"m 760 654 l 192 654 l 192 220 q 210 130 192 176 q 334 36 248 36 q 510 133 450 36 q 557 273 557 208 l 557 543 l 694 543 l 694 -35 q 633 -5 678 -25 l 555 29 l 555 83 q 418 9 475 25 q 336 0 384 0 q 101 132 186 0 q 62 264 62 193 l 62 654 l -20 654 l -20 736 l 760 736 l 760 654 m 493 807 q 477 804 490 804 q 458 807 467 804 l 414 897 q 341 955 387 940 q 283 989 294 970 q 244 1084 273 1020 l 244 1100 l 271 1100 q 355 1069 323 1084 q 427 1015 409 1046 q 458 928 437 998 q 492 836 478 862 q 493 807 493 824 z "},"Ú":{"ha":754,"x_min":-20,"x_max":760,"o":"m 760 654 l 192 654 l 192 220 q 210 130 192 176 q 334 36 248 36 q 510 133 450 36 q 557 273 557 208 l 557 543 l 694 543 l 694 -35 q 633 -5 678 -25 l 555 29 l 555 83 q 418 9 475 25 q 336 0 384 0 q 101 132 186 0 q 62 264 62 193 l 62 654 l -20 654 l -20 736 l 760 736 l 760 654 m 506 1084 q 467 989 494 1050 q 392 950 454 967 q 355 924 368 944 q 292 807 346 911 q 273 804 283 804 q 257 807 260 804 q 254 817 254 814 q 258 836 256 826 q 291 926 273 865 q 323 1014 309 986 q 479 1100 345 1059 l 506 1100 l 506 1084 z "},"Û":{"ha":754,"x_min":-20,"x_max":760,"o":"m 760 654 l 192 654 l 192 220 q 210 130 192 176 q 334 36 248 36 q 510 133 450 36 q 557 273 557 208 l 557 543 l 694 543 l 694 -35 q 633 -5 678 -25 l 555 29 l 555 83 q 418 9 475 25 q 336 0 384 0 q 101 132 186 0 q 62 264 62 193 l 62 654 l -20 654 l -20 736 l 760 736 l 760 654 m 589 817 l 479 831 l 387 946 l 296 831 l 184 817 l 336 1017 l 437 1017 l 589 817 z "},"Ü":{"ha":754,"x_min":-20,"x_max":760,"o":"m 760 654 l 192 654 l 192 220 q 210 130 192 176 q 334 36 248 36 q 510 133 450 36 q 557 273 557 208 l 557 543 l 694 543 l 694 -35 q 633 -5 678 -25 l 555 29 l 555 83 q 418 9 475 25 q 336 0 384 0 q 101 132 186 0 q 62 264 62 193 l 62 654 l -20 654 l -20 736 l 760 736 l 760 654 m 578 914 q 545 875 578 903 q 500 847 512 847 q 466 876 485 847 q 452 895 463 880 q 450 890 452 890 q 436 908 447 890 q 419 942 419 935 q 453 983 419 955 q 500 1011 486 1011 q 540 971 513 1011 q 578 914 578 933 m 338 914 q 309 871 338 900 q 265 842 279 842 q 215 886 254 842 q 189 916 208 894 q 183 932 183 922 q 212 979 183 946 q 256 1011 241 1011 q 296 971 258 1010 q 332 934 319 948 q 338 914 338 926 z "},"Ý":{"ha":770,"x_min":-37,"x_max":779,"o":"m 779 736 l 778 654 l 205 654 l 207 254 q 237 126 207 166 q 358 78 272 82 q 468 114 413 75 q 549 200 517 148 q 583 311 583 257 l 582 567 l 724 518 l 724 -176 q 607 -383 724 -303 q 354 -457 499 -457 q 5 -323 109 -457 q -37 -231 -37 -269 q 58 -88 -37 -146 q 231 -37 141 -37 l 317 -153 q 108 -202 200 -161 q 47 -272 47 -229 q 140 -381 55 -334 q 272 -410 191 -410 q 551 -290 457 -410 q 596 -157 596 -233 l 596 119 q 361 47 552 47 q 117 157 200 47 q 77 279 77 211 l 77 654 l -20 654 l -20 736 l 779 736 m 519 1084 q 480 989 508 1050 q 406 950 467 967 q 368 924 382 944 q 305 807 359 911 q 286 804 297 804 q 271 807 273 804 q 268 817 268 814 q 272 836 270 826 q 305 926 287 865 q 336 1014 323 986 q 493 1100 358 1059 l 519 1100 l 519 1084 z "},"Þ":{"ha":657,"x_min":1,"x_max":628,"o":"m 171 717 q 172 532 171 691 l 174 347 q 224 349 192 349 q 307 346 274 349 q 329 345 324 345 q 422 376 377 345 q 475 546 475 413 q 330 725 475 725 q 251 721 304 725 q 171 717 197 717 m 171 301 l 172 142 q 173 22 172 112 l 174 -127 q 179 -140 174 -132 q 184 -153 184 -149 l 170 -153 q 136 -152 159 -153 q 103 -151 114 -151 q 31 -154 46 -151 q 16 -151 16 -154 q 22 -140 16 -149 q 28 -125 28 -132 l 25 831 q 1 850 3 847 q 47 868 12 868 q 106 860 65 868 q 171 831 171 847 l 171 760 q 327 783 214 762 q 467 800 421 800 q 606 707 573 800 q 628 558 628 647 q 593 351 628 434 q 557 298 577 313 q 457 269 515 269 q 314 285 409 269 q 171 301 219 301 z "},"ß":{"ha":643,"x_min":-8,"x_max":656,"o":"m 656 654 l 476 654 l 476 607 q 562 558 506 594 q 597 467 597 526 q 507 339 597 379 q 546 317 517 330 l 588 298 q 607 277 599 292 q 629 161 629 235 q 499 -29 629 30 q 253 -81 416 -67 l 213 -84 q 170 -93 190 -86 l 196 -57 l 225 -57 q 257 -58 236 -58 q 468 36 396 -58 q 503 122 499 77 q 504 164 504 128 q 446 314 504 291 q 370 334 395 334 q 286 318 347 334 q 289 364 286 351 q 361 371 320 371 q 437 364 410 371 q 501 456 501 376 q 382 562 501 515 q 292 582 332 582 q 239 564 255 582 q 161 96 196 515 l 144 -110 l 24 -151 q 75 189 45 14 q 176 589 127 498 q 322 619 220 619 q 372 618 354 619 l 372 654 l -8 654 l -8 736 l 656 736 l 656 654 z "},"à":{"ha":660,"x_min":-17,"x_max":663,"o":"m 382 807 q 367 804 379 804 q 347 807 355 804 q 308 888 337 827 q 248 950 282 941 q 205 962 229 956 q 172 989 183 970 q 134 1084 164 1018 l 134 1100 l 160 1100 q 244 1070 217 1082 q 315 1015 296 1047 q 347 928 324 1000 q 380 836 366 867 q 382 807 382 824 m 663 654 l 211 654 l 211 546 q 216 543 214 546 q 221 541 219 541 q 215 541 216 541 q 316 563 215 545 q 390 570 353 570 q 586 484 543 570 q 615 254 615 427 l 615 -7 q 507 37 601 -1 q 498 65 507 59 q 439 33 463 44 q 269 -1 366 -1 q 63 83 136 -1 q 28 174 28 123 q 83 286 28 230 q 351 393 191 393 q 507 349 448 393 l 507 411 q 449 462 477 449 q 372 473 421 475 q 172 433 263 471 q 93 403 132 416 l 93 453 q 119 475 102 460 q 122 479 121 479 l 122 654 l -17 654 l -17 736 l 663 736 l 663 654 m 507 225 q 436 279 507 255 q 338 298 377 298 q 109 195 195 298 q 74 127 74 154 q 186 78 88 78 q 416 141 312 78 q 507 225 507 196 z "},"á":{"ha":660,"x_min":-17,"x_max":663,"o":"m 505 1084 q 457 976 493 1043 q 391 950 448 966 q 354 924 368 943 q 292 807 344 909 q 272 804 283 804 q 257 807 260 804 q 254 817 254 814 q 258 836 256 826 q 291 926 273 865 q 323 1014 309 986 q 479 1100 345 1059 l 505 1100 l 505 1084 m 663 654 l 211 654 l 211 546 q 216 543 214 546 q 221 541 219 541 q 215 541 216 541 q 316 563 215 545 q 390 570 353 570 q 586 484 543 570 q 615 254 615 427 l 615 -7 q 507 37 601 -1 q 498 65 507 59 q 439 33 463 44 q 269 -1 366 -1 q 63 83 136 -1 q 28 174 28 123 q 83 286 28 230 q 351 393 191 393 q 507 349 448 393 l 507 411 q 449 462 477 449 q 372 473 421 475 q 172 433 263 471 q 93 403 132 416 l 93 453 q 119 475 102 460 q 122 479 121 479 l 122 654 l -17 654 l -17 736 l 663 736 l 663 654 m 507 225 q 436 279 507 255 q 338 298 377 298 q 109 195 195 298 q 74 127 74 154 q 186 78 88 78 q 416 141 312 78 q 507 225 507 196 z "},"â":{"ha":660,"x_min":-17,"x_max":663,"o":"m 529 817 l 419 831 l 328 946 l 236 831 l 125 817 l 277 1017 l 378 1017 l 529 817 m 663 654 l 211 654 l 211 546 q 216 543 214 546 q 221 541 219 541 q 215 541 216 541 q 316 563 215 545 q 390 570 353 570 q 586 484 543 570 q 615 254 615 427 l 615 -7 q 507 37 601 -1 q 498 65 507 59 q 439 33 463 44 q 269 -1 366 -1 q 63 83 136 -1 q 28 174 28 123 q 83 286 28 230 q 351 393 191 393 q 507 349 448 393 l 507 411 q 449 462 477 449 q 372 473 421 475 q 172 433 263 471 q 93 403 132 416 l 93 453 q 119 475 102 460 q 122 479 121 479 l 122 654 l -17 654 l -17 736 l 663 736 l 663 654 m 507 225 q 436 279 507 255 q 338 298 377 298 q 109 195 195 298 q 74 127 74 154 q 186 78 88 78 q 416 141 312 78 q 507 225 507 196 z "},"ã":{"ha":660,"x_min":-17,"x_max":663,"o":"m 550 947 q 511 892 550 928 q 454 851 476 861 q 366 829 407 829 q 295 853 340 829 q 228 878 250 878 q 135 851 180 878 q 118 864 118 851 q 131 895 118 887 q 254 960 185 926 q 279 964 269 964 q 340 935 295 964 q 403 905 385 905 q 518 956 447 905 q 550 947 550 956 m 663 654 l 211 654 l 211 546 q 216 543 214 546 q 221 541 219 541 q 215 541 216 541 q 316 563 215 545 q 390 570 353 570 q 586 484 543 570 q 615 254 615 427 l 615 -7 q 507 37 601 -1 q 498 65 507 59 q 439 33 463 44 q 269 -1 366 -1 q 63 83 136 -1 q 28 174 28 123 q 83 286 28 230 q 351 393 191 393 q 507 349 448 393 l 507 411 q 449 462 477 449 q 372 473 421 475 q 172 433 263 471 q 93 403 132 416 l 93 453 q 119 475 102 460 q 122 479 121 479 l 122 654 l -17 654 l -17 736 l 663 736 l 663 654 m 507 225 q 436 279 507 255 q 338 298 377 298 q 109 195 195 298 q 74 127 74 154 q 186 78 88 78 q 416 141 312 78 q 507 225 507 196 z "},"ä":{"ha":660,"x_min":-17,"x_max":663,"o":"m 522 914 q 489 875 522 903 q 444 847 456 847 q 412 873 432 847 q 397 895 406 882 q 395 890 397 890 q 381 908 392 890 q 364 942 364 935 q 398 982 364 954 q 444 1011 431 1011 q 485 971 458 1011 q 522 914 522 935 m 283 914 q 253 871 283 901 q 210 842 223 842 q 160 886 196 842 q 140 907 159 888 q 127 932 127 920 q 157 979 127 946 q 200 1011 186 1011 q 225 991 211 1011 q 240 971 228 987 q 267 945 243 966 q 283 914 283 929 m 663 654 l 211 654 l 211 546 q 216 543 214 546 q 221 541 219 541 q 215 541 216 541 q 316 563 215 545 q 390 570 353 570 q 586 484 543 570 q 615 254 615 427 l 615 -7 q 507 37 601 -1 q 498 65 507 59 q 439 33 463 44 q 269 -1 366 -1 q 63 83 136 -1 q 28 174 28 123 q 83 286 28 230 q 351 393 191 393 q 507 349 448 393 l 507 411 q 449 462 477 449 q 372 473 421 475 q 172 433 263 471 q 93 403 132 416 l 93 453 q 119 475 102 460 q 122 479 121 479 l 122 654 l -17 654 l -17 736 l 663 736 l 663 654 m 507 225 q 436 279 507 255 q 338 298 377 298 q 109 195 195 298 q 74 127 74 154 q 186 78 88 78 q 416 141 312 78 q 507 225 507 196 z "},"å":{"ha":660,"x_min":-17,"x_max":663,"o":"m 465 964 q 429 872 465 909 q 338 836 393 836 q 245 872 281 836 q 210 964 210 907 q 245 1056 210 1020 q 338 1092 281 1092 q 449 1029 414 1092 q 465 964 465 1001 m 663 654 l 211 654 l 211 546 q 216 543 214 546 q 221 541 219 541 q 215 541 216 541 q 316 563 215 545 q 390 570 353 570 q 586 484 543 570 q 615 254 615 427 l 615 -7 q 507 37 601 -1 q 498 65 507 59 q 439 33 463 44 q 269 -1 366 -1 q 63 83 136 -1 q 28 174 28 123 q 83 286 28 230 q 351 393 191 393 q 507 349 448 393 l 507 411 q 449 462 477 449 q 372 473 421 475 q 172 433 263 471 q 93 403 132 416 l 93 453 q 119 475 102 460 q 122 479 121 479 l 122 654 l -17 654 l -17 736 l 663 736 l 663 654 m 410 964 q 389 1015 410 994 q 338 1036 368 1036 q 286 1015 307 1036 q 265 964 265 994 q 286 912 265 933 q 338 892 307 892 q 389 913 368 892 q 410 964 410 934 m 507 225 q 436 279 507 255 q 338 298 377 298 q 109 195 195 298 q 74 127 74 154 q 186 78 88 78 q 416 141 312 78 q 507 225 507 196 z "},"æ":{"ha":1165,"x_min":-17,"x_max":1186,"o":"m 1186 654 l 1002 654 l 1002 521 q 1047 503 1031 515 l 1047 422 q 879 450 968 450 q 757 429 814 450 q 677 350 679 401 q 832 296 676 296 q 876 298 836 296 l 917 300 l 917 237 q 745 225 846 237 q 639 139 639 213 q 695 70 639 95 q 790 50 739 50 q 1057 146 944 50 q 1147 245 1107 189 l 1147 74 q 871 0 1027 0 q 615 56 739 0 l 615 -7 q 507 37 601 -1 q 498 65 507 59 q 439 33 463 44 q 269 -1 366 -1 q 63 83 136 -1 q 28 174 28 123 q 83 286 28 230 q 351 393 191 393 q 507 349 448 393 l 507 411 q 449 462 477 449 q 372 473 421 475 q 172 433 263 471 q 93 403 132 416 l 93 453 q 155 503 114 473 q 221 541 205 541 q 215 541 216 541 q 316 563 215 545 q 390 570 353 570 q 591 472 550 570 q 897 545 677 545 l 897 654 l -17 654 l -17 736 l 1186 736 l 1186 654 m 507 225 q 436 279 507 255 q 338 298 377 298 q 109 195 195 298 q 74 127 74 154 q 186 78 88 78 q 464 174 352 78 q 507 225 507 212 z "},"ç":{"ha":708,"x_min":-11,"x_max":718,"o":"m 718 654 l 576 654 l 576 465 q 631 412 621 424 q 665 345 648 390 l 575 345 q 533 460 575 418 q 418 501 492 501 q 273 458 340 501 q 170 349 209 418 q 132 221 132 283 q 184 111 132 149 q 306 77 231 77 q 481 146 431 77 l 625 146 q 506 30 611 82 q 415 1 460 7 l 415 -17 q 439 -60 439 -47 q 357 -147 440 -125 q 289 -138 310 -147 q 359 -89 359 -114 q 353 -72 359 -81 q 328 -61 349 -65 q 318 -60 321 -60 q 335 -31 318 -37 q 347 -25 343 -28 l 347 4 q 174 77 256 20 q 49 216 91 136 q 22 315 22 267 q 71 438 22 370 q 317 582 172 582 q 468 542 412 582 l 468 654 l -11 654 l -11 736 l 718 736 l 718 654 m 347 -25 z "},"è":{"ha":705,"x_min":-9,"x_max":714,"o":"m 437 807 q 422 804 435 804 q 403 807 411 804 q 363 888 393 827 q 303 950 338 941 q 261 962 285 956 q 228 989 239 970 q 189 1084 220 1018 l 189 1100 l 215 1100 q 300 1069 267 1084 q 372 1015 353 1046 q 403 928 382 998 q 436 836 422 862 q 437 807 437 824 m 714 654 l 529 654 l 529 521 q 575 503 561 513 l 575 422 q 407 450 494 450 q 285 429 344 450 q 205 350 206 401 q 359 296 204 296 q 404 298 363 296 l 444 300 l 444 237 q 329 233 352 235 q 167 139 167 218 q 223 70 167 95 q 318 50 267 50 q 675 245 538 50 l 675 74 q 399 0 558 0 q 98 81 224 0 q 36 171 36 120 q 79 257 36 220 q 167 309 106 279 l 122 334 q 82 396 82 357 q 209 517 82 480 q 425 545 305 545 l 425 654 l -9 654 l -9 736 l 714 736 l 714 654 z "},"é":{"ha":705,"x_min":-9,"x_max":714,"o":"m 547 1084 q 499 976 535 1043 q 433 950 490 966 q 396 924 410 943 q 334 807 389 913 q 314 804 324 804 q 298 807 301 804 q 296 817 296 814 q 300 836 298 826 q 332 925 314 865 q 365 1015 351 986 q 521 1100 388 1059 l 547 1100 l 547 1084 m 714 654 l 529 654 l 529 521 q 575 503 561 513 l 575 422 q 407 450 494 450 q 285 429 344 450 q 205 350 206 401 q 359 296 204 296 q 404 298 363 296 l 444 300 l 444 237 q 329 233 352 235 q 167 139 167 218 q 223 70 167 95 q 318 50 267 50 q 675 245 538 50 l 675 74 q 399 0 558 0 q 98 81 224 0 q 36 171 36 120 q 79 257 36 220 q 167 309 106 279 l 122 334 q 82 396 82 357 q 209 517 82 480 q 425 545 305 545 l 425 654 l -9 654 l -9 736 l 714 736 l 714 654 z "},"ê":{"ha":705,"x_min":-9,"x_max":714,"o":"m 557 817 l 447 831 l 355 946 l 264 831 l 153 817 l 304 1017 l 406 1017 l 557 817 m 714 654 l 529 654 l 529 521 q 575 503 561 513 l 575 422 q 407 450 494 450 q 285 429 344 450 q 205 350 206 401 q 359 296 204 296 q 404 298 363 296 l 444 300 l 444 237 q 329 233 352 235 q 167 139 167 218 q 223 70 167 95 q 318 50 267 50 q 675 245 538 50 l 675 74 q 399 0 558 0 q 98 81 224 0 q 36 171 36 120 q 79 257 36 220 q 167 309 106 279 l 122 334 q 82 396 82 357 q 209 517 82 480 q 425 545 305 545 l 425 654 l -9 654 l -9 736 l 714 736 l 714 654 z "},"ë":{"ha":705,"x_min":-9,"x_max":714,"o":"m 553 914 q 520 875 553 903 q 475 847 487 847 q 443 873 463 847 q 428 895 437 882 q 426 890 428 890 q 412 908 422 890 q 395 942 395 935 q 428 982 395 954 q 475 1011 462 1011 q 515 971 489 1011 q 553 914 553 935 m 314 914 q 284 871 314 901 q 240 842 254 842 q 191 886 227 842 q 171 907 189 888 q 158 932 158 920 q 187 979 158 946 q 231 1011 216 1011 q 256 991 241 1011 q 271 971 258 987 q 297 945 274 966 q 314 914 314 929 m 714 654 l 529 654 l 529 521 q 575 503 561 513 l 575 422 q 407 450 494 450 q 285 429 344 450 q 205 350 206 401 q 359 296 204 296 q 404 298 363 296 l 444 300 l 444 237 q 329 233 352 235 q 167 139 167 218 q 223 70 167 95 q 318 50 267 50 q 675 245 538 50 l 675 74 q 399 0 558 0 q 98 81 224 0 q 36 171 36 120 q 79 257 36 220 q 167 309 106 279 l 122 334 q 82 396 82 357 q 209 517 82 480 q 425 545 305 545 l 425 654 l -9 654 l -9 736 l 714 736 l 714 654 z "},"ì":{"ha":264,"x_min":-7,"x_max":269,"o":"m 257 807 q 241 804 254 804 q 222 807 231 804 q 178 898 200 852 q 105 955 155 935 q 47 989 56 975 q 8 1084 37 1021 l 8 1100 l 35 1100 q 119 1069 87 1084 q 191 1015 173 1046 q 222 928 201 998 q 256 836 242 862 q 257 807 257 824 m 269 654 l -7 654 l -7 736 l 269 736 l 269 654 m 192 -16 l 78 47 l 78 571 l 192 571 l 192 -16 z "},"í":{"ha":264,"x_min":-7,"x_max":269,"o":"m 257 1084 q 209 976 245 1043 q 143 950 199 966 q 106 924 121 943 q 79 876 98 912 l 43 807 q 24 804 35 804 q 8 807 11 804 q 5 817 5 814 q 9 836 7 826 q 42 925 24 865 q 75 1015 60 986 q 231 1100 98 1059 l 257 1100 l 257 1084 m 269 654 l -7 654 l -7 736 l 269 736 l 269 654 m 192 -16 l 78 47 l 78 571 l 192 571 l 192 -16 z "},"î":{"ha":264,"x_min":-69,"x_max":335,"o":"m 335 817 l 225 831 l 134 946 l 41 831 l -69 817 l 82 1017 l 183 1017 l 335 817 m 269 654 l -7 654 l -7 736 l 269 736 l 269 654 m 192 -16 l 78 47 l 78 571 l 192 571 l 192 -16 z "},"ï":{"ha":264,"x_min":-66,"x_max":328,"o":"m 328 914 q 276 862 328 900 q 250 847 256 847 q 218 873 237 847 q 203 895 212 882 q 201 890 203 890 q 186 908 197 890 q 170 942 170 935 q 203 983 170 954 q 250 1011 237 1011 q 290 971 264 1011 q 328 914 328 934 m 89 914 q 59 871 89 901 q 16 842 29 842 q -35 886 4 842 q -61 916 -41 894 q -66 932 -66 922 q -22 995 -66 950 q 5 1011 -5 1011 q 31 991 18 1011 q 82 934 35 985 q 89 914 89 926 m 269 654 l -7 654 l -7 736 l 269 736 l 269 654 m 192 -16 l 78 47 l 78 571 l 192 571 l 192 -16 z "},"ð":{"ha":770,"x_min":-14,"x_max":781,"o":"m 781 654 l 692 654 l 692 600 l 777 600 l 733 528 l 692 528 l 690 -8 l 567 45 l 567 142 q 351 0 457 0 q 205 56 284 0 q 92 169 137 104 q 40 317 39 245 q 113 469 41 382 q 307 567 193 567 q 453 505 380 567 q 567 387 475 487 l 567 528 l 458 528 l 501 600 l 567 600 l 567 654 l -14 654 l -14 736 l 567 736 q 543 956 567 876 q 386 1236 508 1074 q 383 1247 383 1238 q 387 1258 383 1255 l 517 1258 q 692 736 692 1065 l 781 736 l 781 654 m 534 346 q 477 437 534 399 q 370 471 425 471 q 287 444 345 471 q 135 237 135 372 q 168 130 135 176 q 264 79 205 79 q 480 226 369 79 q 534 346 534 297 m 567 600 z "},"ñ":{"ha":711,"x_min":-7,"x_max":722,"o":"m 567 947 q 471 851 540 883 q 382 829 423 829 q 312 853 358 829 q 244 878 267 878 q 151 851 196 878 q 135 864 135 851 q 147 895 135 887 q 271 960 193 924 q 296 964 286 964 q 357 935 315 964 q 419 905 400 905 q 534 956 464 905 q 567 947 567 956 m 722 654 l -7 654 l -7 736 l 722 736 l 722 654 m 673 267 q 543 -29 673 113 l 412 53 q 516 164 473 113 q 576 357 576 236 q 422 519 576 519 q 232 400 309 519 q 164 175 164 294 l 164 -22 l 53 36 l 53 546 l 170 546 l 170 465 l 230 511 q 399 571 310 571 q 599 477 519 571 q 673 267 673 389 z "},"ò":{"ha":711,"x_min":-12,"x_max":724,"o":"m 452 807 q 436 804 449 804 q 416 807 426 804 q 354 924 367 905 q 273 962 340 944 q 241 989 254 968 q 203 1084 233 1018 l 203 1100 l 229 1100 q 314 1069 282 1084 q 385 1014 366 1046 q 417 927 396 996 q 450 836 436 864 q 452 807 452 824 m 724 654 l 571 654 l 571 468 q 625 408 571 462 q 667 264 667 357 q 529 34 667 109 q 387 -1 464 -1 q 158 97 276 -1 q 35 321 35 200 q 75 436 35 376 q 161 525 111 490 q 309 567 222 567 q 449 542 356 567 q 453 547 453 542 l 453 654 l -12 654 l -12 736 l 724 736 l 724 654 m 567 354 q 483 482 567 450 q 429 494 452 494 q 248 419 345 494 q 135 195 135 331 q 208 90 135 131 q 275 72 241 72 q 460 153 359 72 q 567 354 567 240 z "},"ó":{"ha":711,"x_min":-12,"x_max":724,"o":"m 503 1084 q 454 976 490 1043 q 389 950 445 966 q 351 924 366 943 q 289 807 341 909 q 269 804 281 804 q 254 807 257 804 q 252 817 252 814 q 256 836 254 826 q 289 926 271 865 q 320 1014 307 986 q 476 1100 342 1059 l 503 1100 l 503 1084 m 724 654 l 571 654 l 571 468 q 625 408 571 462 q 667 264 667 357 q 529 34 667 109 q 387 -1 464 -1 q 158 97 276 -1 q 35 321 35 200 q 75 436 35 376 q 161 525 111 490 q 309 567 222 567 q 449 542 356 567 q 453 547 453 542 l 453 654 l -12 654 l -12 736 l 724 736 l 724 654 m 567 354 q 483 482 567 450 q 429 494 452 494 q 248 419 345 494 q 135 195 135 331 q 208 90 135 131 q 275 72 241 72 q 460 153 359 72 q 567 354 567 240 z "},"ô":{"ha":711,"x_min":-12,"x_max":724,"o":"m 557 817 l 447 831 l 355 946 l 264 831 l 153 817 l 304 1017 l 406 1017 l 557 817 m 724 654 l 571 654 l 571 468 q 625 408 571 462 q 667 264 667 357 q 529 34 667 109 q 387 -1 464 -1 q 158 97 276 -1 q 35 321 35 200 q 75 436 35 376 q 161 525 111 490 q 309 567 222 567 q 449 542 356 567 q 453 547 453 542 l 453 654 l -12 654 l -12 736 l 724 736 l 724 654 m 567 354 q 483 482 567 450 q 429 494 452 494 q 248 419 345 494 q 135 195 135 331 q 208 90 135 131 q 275 72 241 72 q 460 153 359 72 q 567 354 567 240 z "},"õ":{"ha":711,"x_min":-12,"x_max":724,"o":"m 579 947 q 540 892 579 928 q 483 851 505 861 q 395 829 436 829 q 324 853 369 829 q 257 878 279 878 q 164 851 209 878 q 147 864 147 851 q 160 895 147 887 q 283 960 214 926 q 309 964 298 964 q 369 935 324 964 q 432 905 414 905 q 547 956 476 905 q 579 947 579 956 m 724 654 l 571 654 l 571 468 q 625 408 571 462 q 667 264 667 357 q 529 34 667 109 q 387 -1 464 -1 q 158 97 276 -1 q 35 321 35 200 q 75 436 35 376 q 161 525 111 490 q 309 567 222 567 q 449 542 356 567 q 453 547 453 542 l 453 654 l -12 654 l -12 736 l 724 736 l 724 654 m 567 354 q 483 482 567 450 q 429 494 452 494 q 248 419 345 494 q 135 195 135 331 q 208 90 135 131 q 275 72 241 72 q 460 153 359 72 q 567 354 567 240 z "},"ö":{"ha":711,"x_min":-12,"x_max":724,"o":"m 561 914 q 509 862 561 900 q 484 847 489 847 q 451 873 471 847 q 436 895 445 882 q 434 890 436 890 q 420 908 431 890 q 403 942 403 935 q 437 983 403 954 q 484 1011 471 1011 q 524 971 497 1011 q 561 914 561 934 m 322 914 q 292 871 322 901 q 249 842 262 842 q 199 886 237 842 q 172 916 192 894 q 167 932 167 922 q 212 995 167 949 q 239 1011 229 1011 q 264 991 251 1011 q 315 934 269 985 q 322 914 322 926 m 724 654 l 571 654 l 571 468 q 625 408 571 462 q 667 264 667 357 q 529 34 667 109 q 387 -1 464 -1 q 158 97 276 -1 q 35 321 35 200 q 75 436 35 376 q 161 525 111 490 q 309 567 222 567 q 449 542 356 567 q 453 547 453 542 l 453 654 l -12 654 l -12 736 l 724 736 l 724 654 m 567 354 q 483 482 567 450 q 429 494 452 494 q 248 419 345 494 q 135 195 135 331 q 208 90 135 131 q 275 72 241 72 q 460 153 359 72 q 567 354 567 240 z "},"÷":{"ha":505,"x_min":-8,"x_max":518,"o":"m 518 654 l -8 654 l -8 736 l 518 736 l 518 654 m 325 403 q 306 358 325 378 q 262 342 287 342 q 215 361 235 342 q 199 404 199 380 q 217 449 199 431 q 261 467 235 467 q 306 448 288 467 q 325 403 325 429 m 488 294 l 444 222 l 17 222 l 60 294 l 488 294 m 325 114 q 306 69 325 90 q 262 53 287 53 q 215 72 235 53 q 199 115 199 91 q 217 160 199 142 q 261 178 235 178 q 306 159 288 178 q 325 114 325 140 z "},"ø":{"ha":711,"x_min":-12,"x_max":724,"o":"m 724 654 l 567 654 l 498 519 q 667 264 667 435 q 529 34 667 109 q 387 -1 464 -1 q 253 35 323 -1 l 225 -21 l 158 -21 q 180 22 165 -8 l 200 64 q 47 245 87 131 q 35 321 35 283 q 75 436 35 376 q 161 525 111 490 q 309 567 222 567 q 444 543 382 567 l 500 654 l -12 654 l -12 736 l 724 736 l 724 654 m 481 484 l 272 72 q 296 71 284 71 q 488 157 401 71 q 574 348 574 243 q 481 484 574 444 m 419 494 l 212 87 l 419 494 m 419 494 q 399 495 409 495 q 211 413 295 495 q 127 227 127 330 q 212 87 127 134 l 419 494 m 481 484 z "},"ù":{"ha":754,"x_min":-20,"x_max":760,"o":"m 493 807 q 478 804 490 804 q 458 807 467 804 q 419 888 449 827 q 359 950 393 941 q 324 959 350 952 q 283 989 295 967 q 244 1084 273 1020 l 244 1100 l 271 1100 q 355 1069 323 1084 q 427 1015 409 1046 q 458 928 437 998 q 492 836 478 862 q 493 807 493 824 m 760 654 l 192 654 l 192 220 q 210 130 192 176 q 334 36 248 36 q 510 133 450 36 q 557 273 557 208 l 557 543 l 694 543 l 694 -35 q 633 -5 678 -25 l 555 29 l 555 83 q 418 9 475 25 q 336 0 384 0 q 101 132 186 0 q 62 264 62 193 l 62 654 l -20 654 l -20 736 l 760 736 l 760 654 z "},"ú":{"ha":754,"x_min":-20,"x_max":760,"o":"m 505 1084 q 457 976 493 1043 q 391 950 448 966 q 354 924 368 943 q 292 807 344 909 q 272 804 283 804 q 257 807 260 804 q 254 817 254 814 q 258 836 256 826 q 291 926 273 865 q 323 1014 309 986 q 479 1100 345 1059 l 505 1100 l 505 1084 m 760 654 l 192 654 l 192 220 q 210 130 192 176 q 334 36 248 36 q 510 133 450 36 q 557 273 557 208 l 557 543 l 694 543 l 694 -35 q 633 -5 678 -25 l 555 29 l 555 83 q 418 9 475 25 q 336 0 384 0 q 101 132 186 0 q 62 264 62 193 l 62 654 l -20 654 l -20 736 l 760 736 l 760 654 z "},"û":{"ha":754,"x_min":-20,"x_max":760,"o":"m 589 817 l 479 831 l 387 946 l 296 831 l 184 817 l 336 1017 l 437 1017 l 589 817 m 760 654 l 192 654 l 192 220 q 210 130 192 176 q 334 36 248 36 q 510 133 450 36 q 557 273 557 208 l 557 543 l 694 543 l 694 -35 q 633 -5 678 -25 l 555 29 l 555 83 q 418 9 475 25 q 336 0 384 0 q 101 132 186 0 q 62 264 62 193 l 62 654 l -20 654 l -20 736 l 760 736 l 760 654 z "},"ü":{"ha":754,"x_min":-20,"x_max":760,"o":"m 578 914 q 545 875 578 903 q 500 847 512 847 q 468 873 488 847 q 453 895 462 882 q 451 890 453 890 q 436 908 448 890 q 419 942 419 935 q 453 983 419 955 q 500 1011 486 1011 q 541 971 514 1011 q 578 914 578 935 m 339 914 q 309 871 339 901 q 265 842 279 842 q 215 886 254 842 q 189 916 208 894 q 183 932 183 922 q 212 979 183 946 q 256 1011 241 1011 q 281 991 267 1011 q 296 971 283 987 q 322 945 299 966 q 339 914 339 929 m 760 654 l 192 654 l 192 220 q 210 130 192 176 q 334 36 248 36 q 510 133 450 36 q 557 273 557 208 l 557 543 l 694 543 l 694 -35 q 633 -5 678 -25 l 555 29 l 555 83 q 418 9 475 25 q 336 0 384 0 q 101 132 186 0 q 62 264 62 193 l 62 654 l -20 654 l -20 736 l 760 736 l 760 654 z "},"ý":{"ha":770,"x_min":-37,"x_max":779,"o":"m 519 1084 q 471 976 507 1043 q 406 950 462 966 q 368 924 382 943 q 306 807 361 913 q 286 804 296 804 q 271 807 273 804 q 268 817 268 814 q 272 836 270 826 q 304 925 286 865 q 337 1015 323 986 q 493 1100 360 1059 l 519 1100 l 519 1084 m 779 736 l 778 654 l 205 654 l 207 254 q 237 126 207 166 q 358 78 272 82 q 468 114 413 75 q 549 200 517 148 q 583 311 583 257 l 582 567 l 724 518 l 724 -176 q 607 -383 724 -303 q 354 -457 499 -457 q 5 -323 109 -457 q -37 -231 -37 -269 q 58 -88 -37 -146 q 231 -37 141 -37 l 317 -153 q 108 -202 200 -161 q 47 -272 47 -229 q 140 -381 55 -334 q 272 -410 191 -410 q 551 -290 457 -410 q 596 -157 596 -233 l 596 119 q 361 47 552 47 q 117 157 200 47 q 77 279 77 211 l 77 654 l -20 654 l -20 736 l 779 736 z "},"þ":{"ha":618,"x_min":1,"x_max":586,"o":"m 586 406 q 552 199 586 283 q 515 146 536 161 q 425 117 475 117 q 337 127 387 117 l 250 144 q 171 149 230 149 l 172 -3 q 173 -65 172 -12 q 174 -127 174 -92 q 179 -140 174 -132 q 184 -153 184 -149 l 170 -153 q 136 -152 159 -153 q 103 -151 114 -151 q 31 -154 46 -151 q 16 -151 16 -154 q 22 -140 16 -149 q 28 -125 28 -132 l 25 831 q 1 850 3 847 q 47 868 12 868 q 106 860 65 868 q 171 831 171 847 l 171 607 q 304 629 210 610 q 436 647 388 647 q 586 406 586 647 m 433 393 q 396 526 433 482 q 356 563 372 555 q 311 572 336 572 q 241 568 288 572 q 171 564 195 564 q 172 402 171 493 l 174 311 l 174 195 q 221 196 192 196 q 293 193 267 196 q 309 192 306 192 q 380 224 335 192 q 433 393 433 261 z "},"ÿ":{"ha":770,"x_min":-37,"x_max":779,"o":"m 591 914 q 540 862 591 900 q 514 847 519 847 q 481 873 501 847 q 467 895 475 882 q 465 890 467 890 q 450 908 461 890 q 433 942 433 935 q 467 983 433 954 q 514 1011 501 1011 q 554 971 528 1011 q 591 914 591 934 m 353 914 q 323 871 353 901 q 279 842 293 842 q 229 886 268 842 q 203 916 222 894 q 197 932 197 922 q 227 979 197 946 q 269 1011 256 1011 q 295 991 281 1011 q 346 934 299 985 q 353 914 353 926 m 779 736 l 778 654 l 205 654 l 207 254 q 237 126 207 166 q 358 78 272 82 q 468 114 413 75 q 549 200 517 148 q 583 311 583 257 l 582 567 l 724 518 l 724 -176 q 607 -383 724 -303 q 354 -457 499 -457 q 5 -323 109 -457 q -37 -231 -37 -269 q 58 -88 -37 -146 q 231 -37 141 -37 l 317 -153 q 108 -202 200 -161 q 47 -272 47 -229 q 140 -381 55 -334 q 272 -410 191 -410 q 551 -290 457 -410 q 596 -157 596 -233 l 596 119 q 361 47 552 47 q 117 157 200 47 q 77 279 77 211 l 77 654 l -20 654 l -20 736 l 779 736 z "},"ı":{"ha":733,"x_min":-4,"x_max":743,"o":"m 743 785 l -4 785 l -4 884 l 743 884 l 743 785 z "},"Œ":{"ha":1223,"x_min":-12,"x_max":1242,"o":"m 1242 654 l 1071 654 l 1071 521 q 1117 503 1103 513 l 1117 422 q 949 450 1036 450 q 827 429 886 450 q 747 350 748 401 q 901 296 746 296 q 945 298 905 296 l 986 300 l 986 237 q 814 225 915 237 q 708 139 708 213 q 765 70 708 95 q 860 50 809 50 q 1217 245 1078 50 l 1217 74 q 940 0 1096 0 q 704 47 825 0 q 611 103 644 71 q 387 -1 530 -1 q 158 97 276 -1 q 35 321 35 200 q 75 436 35 376 q 161 525 111 490 q 309 567 222 567 q 625 408 509 567 q 758 519 635 484 q 966 545 849 545 l 966 654 l -12 654 l -12 736 l 1242 736 l 1242 654 m 708 309 q 659 338 691 317 q 665 288 664 311 l 708 309 m 567 354 q 483 482 567 450 q 429 494 452 494 q 248 419 345 494 q 135 195 135 331 q 208 90 135 131 q 275 72 241 72 q 460 153 359 72 q 567 354 567 240 z "},"œ":{"ha":1223,"x_min":-12,"x_max":1242,"o":"m 1242 654 l 1071 654 l 1071 521 q 1117 503 1103 513 l 1117 422 q 949 450 1036 450 q 827 429 886 450 q 747 350 748 401 q 901 296 746 296 q 945 298 905 296 l 986 300 l 986 237 q 814 225 915 237 q 708 139 708 213 q 765 70 708 95 q 860 50 809 50 q 1217 245 1078 50 l 1217 74 q 940 0 1096 0 q 704 47 825 0 q 611 103 644 71 q 387 -1 530 -1 q 158 97 276 -1 q 35 321 35 200 q 75 436 35 376 q 161 525 111 490 q 309 567 222 567 q 625 408 509 567 q 758 519 635 484 q 966 545 849 545 l 966 654 l -12 654 l -12 736 l 1242 736 l 1242 654 m 708 309 q 659 338 691 317 q 665 288 664 311 l 708 309 m 567 354 q 483 482 567 450 q 429 494 452 494 q 248 419 345 494 q 135 195 135 331 q 208 90 135 131 q 275 72 241 72 q 460 153 359 72 q 567 354 567 240 z "},"Š":{"ha":682,"x_min":-11,"x_max":689,"o":"m 689 654 l 615 654 l 615 397 q 500 438 575 421 q 378 454 429 454 q 170 410 254 454 q 122 345 122 385 q 179 290 122 290 q 269 311 214 290 q 361 343 305 323 q 446 351 385 351 q 621 279 563 351 q 648 197 648 244 q 513 28 648 90 q 406 -1 456 2 q 498 -50 454 -50 q 529 -46 513 -50 l 597 -158 q 511 -176 576 -176 q 422 -140 458 -176 q 366 -58 402 -121 q 315 -4 336 -5 q 122 41 190 -1 q 79 114 79 68 q 147 171 79 171 q 252 132 172 171 q 383 93 332 93 q 576 142 486 93 q 621 200 621 165 q 539 252 621 252 q 377 215 514 252 q 278 193 296 193 q 100 295 170 193 q 66 400 66 344 q 223 555 66 515 q 345 571 288 571 q 529 539 410 571 l 529 654 l -11 654 l -11 736 l 689 736 l 689 654 m 545 1019 l 393 819 l 292 819 l 140 1019 l 250 1006 l 342 890 l 433 1006 l 545 1019 z "},"š":{"ha":682,"x_min":-11,"x_max":689,"o":"m 689 654 l 615 654 l 615 397 q 500 438 575 421 q 378 454 429 454 q 170 410 254 454 q 122 345 122 385 q 179 290 122 290 q 269 311 214 290 q 361 343 305 323 q 446 351 385 351 q 621 279 563 351 q 648 197 648 244 q 513 28 648 90 q 406 -1 456 2 q 498 -50 454 -50 q 529 -46 513 -50 l 597 -158 q 511 -176 576 -176 q 422 -140 458 -176 q 366 -58 402 -121 q 315 -4 336 -5 q 122 41 190 -1 q 79 114 79 68 q 147 171 79 171 q 252 132 172 171 q 383 93 332 93 q 576 142 486 93 q 621 200 621 165 q 539 252 621 252 q 377 215 514 252 q 278 193 296 193 q 100 295 170 193 q 66 400 66 344 q 223 555 66 515 q 345 571 288 571 q 529 539 410 571 l 529 654 l -11 654 l -11 736 l 689 736 l 689 654 m 250 1006 l 342 890 l 433 1006 l 545 1019 l 393 819 l 292 819 l 140 1019 l 250 1006 z "},"Ÿ":{"ha":770,"x_min":-37,"x_max":779,"o":"m 779 736 l 778 654 l 205 654 l 207 254 q 237 126 207 166 q 358 78 272 82 q 468 114 413 75 q 549 200 517 148 q 583 311 583 257 l 582 567 l 724 518 l 724 -176 q 607 -383 724 -303 q 354 -457 499 -457 q 5 -323 109 -457 q -37 -231 -37 -269 q 58 -88 -37 -146 q 231 -37 141 -37 l 317 -153 q 108 -202 200 -161 q 47 -272 47 -229 q 140 -381 55 -334 q 272 -410 191 -410 q 551 -290 457 -410 q 596 -157 596 -233 l 596 119 q 361 47 552 47 q 117 157 200 47 q 77 279 77 211 l 77 654 l -20 654 l -20 736 l 779 736 m 592 914 q 559 875 592 903 q 514 847 526 847 q 480 876 499 847 q 467 895 477 880 q 465 890 467 890 q 450 908 461 890 q 433 942 433 935 q 467 983 433 955 q 514 1011 500 1011 q 554 971 528 1011 q 592 914 592 933 m 353 914 q 323 871 353 900 q 279 842 294 842 q 229 886 268 842 q 203 916 222 894 q 197 932 197 922 q 227 979 197 946 q 270 1011 256 1011 q 310 971 272 1010 q 346 934 333 948 q 353 914 353 926 z "},"ƒ":{"ha":728,"x_min":-11,"x_max":739,"o":"m 739 654 l 203 654 l 203 -7 q 90 56 97 44 l 90 654 l -11 654 l -11 736 l 79 736 q 87 749 87 736 q 56 795 87 752 q 17 848 20 842 q 0 918 0 877 q 114 1060 0 1004 q 314 1109 215 1109 q 537 1050 428 1109 q 688 882 660 983 q 554 971 635 920 q 372 1028 463 1028 q 163 962 237 1028 q 127 893 127 930 q 195 771 127 838 q 203 736 203 761 l 739 736 l 739 654 z "},"ˆ":{"ha":463,"x_min":28,"x_max":432,"o":"m 432 817 l 322 831 l 231 946 l 139 831 l 28 817 l 179 1017 l 281 1017 l 432 817 z "},"ˇ":{"ha":463,"x_min":29,"x_max":433,"o":"m 433 1019 l 282 819 l 180 819 l 29 1019 l 139 1006 l 231 890 l 322 1006 l 433 1019 z "},"¯":{"ha":461,"x_min":14,"x_max":443,"o":"m 443 905 l 400 833 l 14 833 l 57 905 l 443 905 z "},"ˉ":{"ha":461,"x_min":14,"x_max":443,"o":"m 443 905 l 400 833 l 14 833 l 57 905 l 443 905 z "},"˙":{"ha":179,"x_min":-7,"x_max":174,"o":"m 174 1038 q 140 991 174 1029 q 82 951 95 951 q 31 976 68 951 q -7 1014 -7 1001 q 32 1055 -7 1034 l 43 1067 q 85 1096 71 1096 q 138 1074 102 1096 q 174 1038 174 1053 z "},"˚":{"ha":315,"x_min":35,"x_max":290,"o":"m 290 964 q 254 872 290 909 q 163 836 218 836 q 71 872 106 836 q 35 964 35 907 q 71 1056 35 1020 q 163 1092 106 1092 q 274 1029 239 1092 q 290 964 290 1001 m 235 964 q 214 1015 235 994 q 163 1036 193 1036 q 111 1015 132 1036 q 90 964 90 994 q 111 912 90 933 q 163 892 132 892 q 214 913 193 892 q 235 964 235 934 z "},"˛":{"ha":463,"x_min":87,"x_max":399,"o":"m 399 -268 q 265 -313 309 -313 q 149 -282 200 -313 q 87 -184 87 -246 q 166 -51 87 -117 q 267 0 207 -17 l 359 0 l 359 -5 q 252 -73 283 -47 q 193 -178 193 -121 q 285 -248 193 -248 q 375 -212 302 -248 l 399 -268 z "},"˜":{"ha":461,"x_min":24,"x_max":456,"o":"m 456 947 q 417 892 456 928 q 361 852 385 863 q 271 829 312 829 q 200 853 245 829 q 134 878 155 878 q 40 851 85 878 q 24 864 24 851 q 36 895 24 887 q 160 960 79 921 q 184 964 175 964 q 246 935 203 964 q 309 905 289 905 q 424 956 353 905 q 456 947 456 956 z "},"˝":{"ha":273,"x_min":-1,"x_max":290,"o":"m 290 997 q 288 987 290 994 q 208 836 266 950 l 195 807 q 164 790 186 790 q 139 799 139 790 q 171 890 144 827 q 199 982 195 947 q 208 1000 201 1000 q 227 998 214 1000 q 245 996 239 996 q 269 998 248 996 l 286 1000 q 290 997 290 1000 m 151 997 q 149 987 151 994 l 94 889 q 62 823 81 865 l 56 807 q 24 790 48 790 q -1 799 -1 790 q 30 890 4 829 q 60 982 55 949 q 68 1000 60 1000 q 87 998 74 1000 q 106 996 100 996 l 147 1000 q 151 997 151 1000 z "},"µ":{"ha":566,"x_min":47,"x_max":521,"o":"m 521 -26 q 416 22 491 -11 l 416 62 q 253 0 331 0 q 123 47 180 0 q 111 9 111 44 q 121 -61 111 -14 q 131 -132 131 -109 q 102 -186 119 -186 q 82 -158 82 -182 q 65 -90 65 -135 q 72 5 65 -58 q 78 100 78 68 q 47 199 47 145 l 47 490 l 144 490 l 144 165 q 170 73 144 113 q 250 28 200 28 q 402 137 361 28 q 418 205 418 179 l 418 407 l 521 407 l 521 -26 z "},"μ":{"ha":566,"x_min":47,"x_max":521,"o":"m 521 -26 q 416 22 491 -11 l 416 62 q 253 0 331 0 q 123 47 180 0 q 111 9 111 44 q 121 -61 111 -14 q 131 -132 131 -109 q 102 -186 119 -186 q 82 -158 82 -182 q 65 -90 65 -135 q 72 5 65 -58 q 78 100 78 68 q 47 199 47 145 l 47 490 l 144 490 l 144 165 q 170 73 144 113 q 250 28 200 28 q 402 137 361 28 q 418 205 418 179 l 418 407 l 521 407 l 521 -26 z "},"–":{"ha":1014,"x_min":-7,"x_max":1032,"o":"m 1032 654 l -7 654 l -7 736 l 1032 736 l 1032 654 m 994 403 q 960 380 991 398 l 913 351 l 40 351 l 121 403 l 994 403 z "},"—":{"ha":725,"x_min":-7,"x_max":741,"o":"m 741 654 l -7 654 l -7 736 l 741 736 l 741 654 m 693 403 q 659 379 688 396 l 611 351 l 45 351 l 125 403 l 693 403 z "},"‘":{"ha":201,"x_min":-8,"x_max":204,"o":"m 175 1097 l 145 1066 q 125 1031 125 1045 q 152 989 125 1010 q 171 974 157 985 l 100 908 q 61 934 81 908 q 40 979 40 960 q 117 1078 40 1032 q 175 1097 149 1097 m 204 654 l -8 654 l -8 736 l 204 736 l 204 654 z "},"’":{"ha":201,"x_min":-8,"x_max":204,"o":"m 170 1015 q 92 917 170 961 q 35 899 60 899 q 77 944 50 913 q 85 965 85 954 q 39 1022 85 985 l 110 1088 q 151 1061 130 1088 q 170 1015 170 1036 m 204 654 l -8 654 l -8 736 l 204 736 l 204 654 z "},"‚":{"ha":199,"x_min":35,"x_max":170,"o":"m 170 -14 q 93 -112 170 -66 q 35 -131 61 -131 q 77 -85 50 -117 q 85 -64 85 -74 q 39 -7 85 -43 l 110 58 q 150 33 131 58 q 170 -14 170 8 z "},"“":{"ha":201,"x_min":-1,"x_max":408,"o":"m 367 1097 q 315 1031 315 1045 q 363 974 315 1008 l 292 908 q 252 934 273 908 q 231 979 231 960 q 279 1059 231 1021 q 367 1097 324 1096 m 168 1097 q 117 1031 117 1045 q 164 974 117 1008 l 93 908 q 53 934 75 908 q 32 979 32 960 q 80 1059 32 1021 q 168 1097 125 1096 m 408 654 l -1 654 l -1 736 l 408 736 l 408 654 z "},"”":{"ha":201,"x_min":-1,"x_max":408,"o":"m 396 1015 q 348 935 396 974 q 260 899 302 899 q 304 945 279 916 q 311 965 311 954 q 286 1005 311 985 q 264 1022 281 1009 l 335 1088 q 375 1062 355 1088 q 396 1015 396 1036 m 197 1015 q 149 935 197 974 q 61 899 104 899 q 105 945 81 916 q 113 965 113 954 q 87 1005 113 985 q 65 1022 82 1009 l 136 1088 q 177 1062 156 1088 q 197 1015 197 1036 m 408 654 l -1 654 l -1 736 l 408 736 l 408 654 z "},"„":{"ha":400,"x_min":35,"x_max":364,"o":"m 364 -14 q 288 -112 364 -66 q 229 -131 256 -131 q 271 -85 244 -117 q 279 -64 279 -74 q 233 -7 279 -43 l 304 58 q 345 33 326 58 q 364 -14 364 8 m 170 -14 q 93 -112 170 -66 q 35 -131 61 -131 q 77 -85 50 -117 q 85 -64 85 -74 q 39 -7 85 -43 l 110 58 q 150 33 131 58 q 170 -14 170 8 z "},"†":{"ha":450,"x_min":-8,"x_max":454,"o":"m 454 654 l 292 654 l 292 736 l 454 736 l 454 654 m 431 808 q 382 766 409 766 q 326 782 365 766 q 269 798 288 798 l 252 794 q 244 779 248 792 q 259 501 252 648 l 273 207 q 235 158 274 187 q 193 207 193 181 q 199 312 193 203 l 221 698 q 225 781 225 770 q 221 794 220 792 q 203 799 215 795 q 149 786 178 799 q 90 768 109 768 q 41 810 64 768 q 90 848 70 848 q 144 835 109 848 q 201 818 186 818 q 220 823 208 820 q 225 844 221 830 q 200 930 225 858 q 195 957 195 945 q 236 1006 195 982 q 275 957 275 977 q 261 903 275 939 q 244 846 244 859 q 253 823 247 838 q 271 817 256 822 q 347 840 283 817 q 382 847 368 847 q 431 808 401 847 m 176 654 l -8 654 l -8 736 l 176 736 l 176 654 z "},"‡":{"ha":450,"x_min":-8,"x_max":454,"o":"m 454 654 l 294 654 l 281 736 l 454 736 l 454 654 m 424 350 q 375 309 401 309 q 318 326 358 309 q 262 339 286 339 l 245 336 q 237 321 242 334 q 254 263 237 306 q 268 210 268 229 q 229 161 268 189 q 187 210 187 183 q 205 267 187 225 q 218 322 218 300 q 213 336 213 332 q 214 336 213 336 q 196 340 208 337 q 142 328 172 340 q 83 310 102 310 q 35 351 58 310 q 83 390 63 390 q 137 376 102 390 q 195 359 180 359 q 212 366 201 361 q 218 386 214 375 q 203 485 218 419 q 187 583 187 550 q 194 631 187 597 l 206 693 q 218 781 218 755 q 214 794 212 793 q 196 799 208 795 q 142 786 172 799 q 83 768 102 768 q 35 810 58 768 q 83 848 63 848 q 137 835 102 848 q 195 818 180 818 q 212 823 198 819 q 218 844 214 829 q 204 902 218 868 q 187 957 187 942 q 229 1006 187 983 q 268 957 268 976 q 255 906 268 939 q 237 846 237 861 l 241 835 l 245 823 q 264 817 253 821 q 324 834 279 817 q 375 847 357 847 q 424 808 394 847 q 375 766 401 766 q 319 782 358 766 q 262 798 281 798 l 244 794 q 237 779 241 792 q 253 682 237 747 q 268 583 269 617 q 252 486 267 551 q 237 387 237 421 l 245 366 q 264 358 248 363 q 324 376 279 358 q 375 389 357 389 q 424 350 395 389 m 176 736 l 163 654 l -8 654 l -8 736 l 176 736 z "},"•":{"ha":272,"x_min":46,"x_max":235,"o":"m 235 336 q 208 270 235 296 q 140 243 180 243 q 74 269 101 243 q 46 335 46 296 q 72 403 46 376 q 139 431 98 431 q 207 404 179 431 q 235 336 235 376 z "},"…":{"ha":714,"x_min":-8,"x_max":760,"o":"m 760 654 l -8 654 l -8 736 l 760 736 l 760 654 m 707 46 q 663 15 697 37 q 619 -7 628 -7 q 584 18 616 -7 q 547 47 555 40 l 623 107 q 707 46 630 107 m 457 46 q 414 16 449 38 q 370 -7 376 -7 q 297 47 359 -7 l 372 107 q 457 46 380 107 m 207 46 q 163 15 197 37 q 119 -7 128 -7 q 84 18 116 -7 q 47 47 55 40 l 122 107 q 207 46 130 107 z "},"‰":{"ha":810,"x_min":-11,"x_max":817,"o":"m 802 132 q 789 81 802 102 q 669 3 757 3 q 655 4 665 3 q 640 5 645 5 q 557 86 572 28 q 550 111 555 88 q 564 182 550 159 q 619 239 582 212 q 650 253 621 240 q 679 257 665 257 q 766 220 730 257 q 802 132 802 184 m 817 654 l 500 654 l 56 -21 l -11 -21 l 433 654 l -8 654 l -8 736 l 817 736 l 817 654 m 253 490 q 215 395 253 433 q 121 357 177 357 q 51 380 83 357 q 9 440 20 404 q 4 482 4 460 q 103 607 4 571 q 135 612 118 612 q 244 534 210 612 q 253 490 253 515 m 489 132 q 476 81 489 102 q 357 3 444 3 q 342 4 352 3 q 328 5 332 5 q 244 86 260 28 q 237 111 242 88 q 252 182 237 159 q 307 239 271 212 q 338 253 313 243 q 367 257 352 257 q 479 182 443 257 q 489 132 489 156 m 760 114 q 747 178 760 142 q 703 229 732 210 q 664 241 673 241 q 644 236 652 242 q 640 211 640 229 q 660 203 646 203 q 667 208 663 203 q 673 214 671 214 q 682 201 682 208 q 672 183 680 193 q 648 178 659 178 q 632 182 640 178 q 623 220 623 192 q 621 221 621 221 l 619 221 q 590 126 590 199 q 673 21 611 31 q 734 43 719 21 q 760 114 760 70 m 211 469 q 155 583 211 546 q 115 595 136 591 q 97 590 108 595 q 93 576 93 586 q 111 557 93 557 q 118 563 113 557 q 126 568 123 568 q 136 554 136 564 q 125 538 135 551 q 102 530 112 530 q 74 574 74 530 q 71 575 73 575 q 43 481 43 553 q 126 375 62 385 q 187 397 172 375 q 211 469 211 422 m 447 114 q 390 229 447 193 q 351 240 377 237 q 332 236 338 240 q 328 211 328 229 q 347 203 334 203 q 354 208 350 203 q 361 214 358 214 q 370 201 370 209 q 359 183 368 191 q 336 178 346 178 q 319 182 328 178 q 310 220 310 192 q 307 221 309 221 q 278 126 278 198 q 361 21 296 31 q 422 43 406 21 q 447 114 447 70 z "},"‹":{"ha":296,"x_min":53,"x_max":253,"o":"m 253 111 l 53 262 l 53 364 l 253 515 l 239 406 l 123 314 l 239 222 l 253 111 z "},"›":{"ha":296,"x_min":50,"x_max":250,"o":"m 250 261 l 50 110 l 64 220 l 179 311 l 64 403 l 50 514 l 250 363 l 250 261 z "},"™":{"ha":823,"x_min":-8,"x_max":832,"o":"m 806 368 q 721 225 806 282 q 684 204 690 204 q 618 264 677 204 q 756 336 695 267 q 783 400 783 366 q 759 441 783 427 q 710 453 738 454 q 575 325 600 449 q 525 346 557 332 q 505 354 520 348 q 536 432 505 385 q 490 449 536 449 q 399 397 431 449 q 385 351 385 374 q 460 231 385 297 q 493 199 492 203 q 378 260 429 218 q 317 368 317 312 q 362 460 317 422 q 460 496 405 496 q 533 479 497 496 q 568 458 536 477 q 563 460 564 458 q 640 484 563 467 q 718 490 671 490 q 806 368 806 482 m 832 654 l 171 650 l 171 578 l 237 578 l 237 538 l 171 538 l 171 264 q 179 242 171 253 q 197 231 187 231 q 248 335 248 231 l 315 296 q 195 208 275 208 q 136 233 162 208 q 110 290 110 258 l 110 538 l 37 538 l 37 578 l 110 578 l 110 654 l -8 654 l -8 736 l 832 736 l 832 654 z "},"­":{"ha":505,"x_min":14,"x_max":485,"o":"m 441 222 l 14 222 l 57 294 l 485 294 l 441 222 z "},"−":{"ha":505,"x_min":14,"x_max":485,"o":"m 441 222 l 14 222 l 57 294 l 485 294 l 441 222 z "},"·":{"ha":272,"x_min":-8,"x_max":278,"o":"m 278 654 l -8 654 l -8 736 l 278 736 l 278 654 m 235 336 q 208 270 235 296 q 140 243 180 243 q 74 269 101 243 q 46 335 46 296 q 72 403 46 376 q 139 431 98 431 q 207 404 179 431 q 235 336 235 376 z "},"∙":{"ha":272,"x_min":-8,"x_max":278,"o":"m 278 654 l -8 654 l -8 736 l 278 736 l 278 654 m 235 336 q 208 270 235 296 q 140 243 180 243 q 74 269 101 243 q 46 335 46 296 q 72 403 46 376 q 139 431 98 431 q 207 404 179 431 q 235 336 235 376 z "}," ":{"ha":272,"x_min":0,"x_max":0,"o":""},"":{"ha":452,"x_min":-7,"x_max":460,"o":"m 460 654 l -7 654 l -7 736 l 460 736 l 460 654 z "},"":{"ha":562,"x_min":1,"x_max":541,"o":"m 541 852 q 486 684 541 751 q 414 606 462 654 q 307 408 307 500 q 315 366 307 382 l 131 271 q 115 342 115 317 q 163 484 115 416 q 260 588 193 527 q 363 687 339 659 q 412 804 412 745 q 292 966 412 928 q 170 985 236 984 q 37 962 79 985 q 1 945 16 951 q 119 1069 41 1025 q 288 1112 195 1112 q 446 1059 370 1112 q 541 852 541 991 m 378 134 q 254 1 332 81 q 156 92 241 1 q 126 134 126 124 q 181 204 126 144 q 245 264 236 264 q 316 203 255 264 q 378 134 378 142 z "},"":{"ha":264,"x_min":-7,"x_max":269,"o":"m 269 654 l -7 654 l -7 736 l 269 736 l 269 654 m 192 -16 l 78 47 l 78 571 l 192 571 l 192 -16 z "}}}
